{
    "asset" : {
        "generator" : "Khronos glTF Blender I/O v0.9.36",
        "version" : "2.0"
    },
    "scene" : 0,
    "scenes" : [
        {
            "name" : "Scene",
            "nodes" : [
                8
            ]
        }
    ],
    "nodes" : [
        {
            "name" : "gate front",
            "rotation" : [
                0.9997795224189758,
                0,
                -0.020998559892177582,
                0
            ],
            "translation" : [
                2.264307321083272e-15,
                -1.5491371154785156,
                0.45679110288619995
            ]
        },
        {
            "name" : "gate left",
            "rotation" : [
                -0.014848661608994007,
                -0.014848661608994007,
                -0.706950843334198,
                0.706950843334198
            ],
            "translation" : [
                0.7104381918907166,
                0.5735783576965332,
                0.4796019196510315
            ]
        },
        {
            "name" : "gun",
            "rotation" : [
                0.9384235739707947,
                -7.673357345083787e-07,
                6.001345127515378e-07,
                0.34548690915107727
            ],
            "scale" : [
                1,
                1,
                1.0000005960464478
            ],
            "translation" : [
                -3.391486852639958e-13,
                1.0994534492492676,
                0
            ]
        },
        {
            "children" : [
                2
            ],
            "name" : "leg",
            "rotation" : [
                -0.4168514311313629,
                1.0780561296996893e-06,
                -6.98025530709856e-07,
                0.9089746475219727
            ],
            "translation" : [
                2.133875258634424e-15,
                1.254482388496399,
                1.1641532182693481e-09
            ]
        },
        {
            "children" : [
                3
            ],
            "name" : "base",
            "rotation" : [
                0.7052199244499207,
                1.7358226500618912e-07,
                1.7266066265619884e-07,
                0.708988606929779
            ],
            "scale" : [
                1,
                0.9999999403953552,
                0.9976321458816528
            ],
            "translation" : [
                2.1903816735787058e-15,
                -0.30266377329826355,
                -0.5932426452636719
            ]
        },
        {
            "name" : "gate right",
            "rotation" : [
                0.49999991059303284,
                -0.5000000596046448,
                0.4999999701976776,
                0.5000000596046448
            ],
            "translation" : [
                -0.7320870757102966,
                0.5286937952041626,
                0.4602225422859192
            ]
        },
        {
            "name" : "frame",
            "rotation" : [
                0.7071068286895752,
                5.338508657359853e-08,
                5.338508657359853e-08,
                0.7071068286895752
            ],
            "translation" : [
                -0.007066249847412109,
                -0.7151209115982056,
                -0.5393288135528564
            ]
        },
        {
            "mesh" : 0,
            "name" : "Cannon",
            "skin" : 0
        },
        {
            "children" : [
                7,
                0,
                1,
                4,
                5,
                6
            ],
            "name" : "85mmAutoCannon_Arm"
        }
    ],
    "animations" : [
        {
            "channels" : [
                {
                    "sampler" : 0,
                    "target" : {
                        "node" : 2,
                        "path" : "translation"
                    }
                },
                {
                    "sampler" : 1,
                    "target" : {
                        "node" : 2,
                        "path" : "rotation"
                    }
                },
                {
                    "sampler" : 2,
                    "target" : {
                        "node" : 2,
                        "path" : "scale"
                    }
                },
                {
                    "sampler" : 3,
                    "target" : {
                        "node" : 3,
                        "path" : "translation"
                    }
                },
                {
                    "sampler" : 4,
                    "target" : {
                        "node" : 3,
                        "path" : "rotation"
                    }
                },
                {
                    "sampler" : 5,
                    "target" : {
                        "node" : 3,
                        "path" : "scale"
                    }
                },
                {
                    "sampler" : 6,
                    "target" : {
                        "node" : 1,
                        "path" : "translation"
                    }
                },
                {
                    "sampler" : 7,
                    "target" : {
                        "node" : 1,
                        "path" : "rotation"
                    }
                },
                {
                    "sampler" : 8,
                    "target" : {
                        "node" : 1,
                        "path" : "scale"
                    }
                },
                {
                    "sampler" : 9,
                    "target" : {
                        "node" : 4,
                        "path" : "translation"
                    }
                },
                {
                    "sampler" : 10,
                    "target" : {
                        "node" : 4,
                        "path" : "rotation"
                    }
                },
                {
                    "sampler" : 11,
                    "target" : {
                        "node" : 4,
                        "path" : "scale"
                    }
                },
                {
                    "sampler" : 12,
                    "target" : {
                        "node" : 5,
                        "path" : "translation"
                    }
                },
                {
                    "sampler" : 13,
                    "target" : {
                        "node" : 5,
                        "path" : "rotation"
                    }
                },
                {
                    "sampler" : 14,
                    "target" : {
                        "node" : 5,
                        "path" : "scale"
                    }
                },
                {
                    "sampler" : 15,
                    "target" : {
                        "node" : 6,
                        "path" : "translation"
                    }
                },
                {
                    "sampler" : 16,
                    "target" : {
                        "node" : 6,
                        "path" : "rotation"
                    }
                },
                {
                    "sampler" : 17,
                    "target" : {
                        "node" : 6,
                        "path" : "scale"
                    }
                },
                {
                    "sampler" : 18,
                    "target" : {
                        "node" : 0,
                        "path" : "translation"
                    }
                }
            ],
            "name" : "deploy",
            "samplers" : [
                {
                    "input" : 8,
                    "interpolation" : "CUBICSPLINE",
                    "output" : 9
                },
                {
                    "input" : 8,
                    "interpolation" : "CUBICSPLINE",
                    "output" : 10
                },
                {
                    "input" : 8,
                    "interpolation" : "CUBICSPLINE",
                    "output" : 11
                },
                {
                    "input" : 12,
                    "interpolation" : "CUBICSPLINE",
                    "output" : 13
                },
                {
                    "input" : 8,
                    "interpolation" : "CUBICSPLINE",
                    "output" : 14
                },
                {
                    "input" : 8,
                    "interpolation" : "CUBICSPLINE",
                    "output" : 15
                },
                {
                    "input" : 16,
                    "interpolation" : "CUBICSPLINE",
                    "output" : 17
                },
                {
                    "input" : 16,
                    "interpolation" : "CUBICSPLINE",
                    "output" : 18
                },
                {
                    "input" : 16,
                    "interpolation" : "CUBICSPLINE",
                    "output" : 19
                },
                {
                    "input" : 20,
                    "interpolation" : "CUBICSPLINE",
                    "output" : 21
                },
                {
                    "input" : 22,
                    "interpolation" : "STEP",
                    "output" : 23
                },
                {
                    "input" : 22,
                    "interpolation" : "STEP",
                    "output" : 24
                },
                {
                    "input" : 16,
                    "interpolation" : "CUBICSPLINE",
                    "output" : 25
                },
                {
                    "input" : 16,
                    "interpolation" : "CUBICSPLINE",
                    "output" : 26
                },
                {
                    "input" : 16,
                    "interpolation" : "CUBICSPLINE",
                    "output" : 27
                },
                {
                    "input" : 16,
                    "interpolation" : "CUBICSPLINE",
                    "output" : 28
                },
                {
                    "input" : 22,
                    "interpolation" : "STEP",
                    "output" : 29
                },
                {
                    "input" : 22,
                    "interpolation" : "STEP",
                    "output" : 30
                },
                {
                    "input" : 31,
                    "interpolation" : "CUBICSPLINE",
                    "output" : 32
                }
            ]
        },
        {
            "channels" : [
                {
                    "sampler" : 0,
                    "target" : {
                        "node" : 3,
                        "path" : "rotation"
                    }
                }
            ],
            "name" : "traverse_horisontal",
            "samplers" : [
                {
                    "input" : 33,
                    "interpolation" : "CUBICSPLINE",
                    "output" : 34
                }
            ]
        }
    ],
    "materials" : [
        {
            "doubleSided" : true,
            "name" : "Gun material",
            "normalTexture" : {
                "index" : 0,
                "texCoord" : 0
            },
            "pbrMetallicRoughness" : {
                "baseColorTexture" : {
                    "index" : 1,
                    "texCoord" : 0
                },
                "metallicFactor" : 0,
                "roughnessFactor" : 0.5
            }
        }
    ],
    "meshes" : [
        {
            "name" : "Cube.010",
            "primitives" : [
                {
                    "attributes" : {
                        "POSITION" : 0,
                        "NORMAL" : 1,
                        "TEXCOORD_0" : 2,
                        "COLOR_0" : 3,
                        "JOINTS_0" : 4,
                        "WEIGHTS_0" : 5
                    },
                    "indices" : 6,
                    "material" : 0
                }
            ]
        }
    ],
    "textures" : [
        {
            "source" : 0
        },
        {
            "source" : 1
        }
    ],
    "images" : [
        {
            "mimeType" : "image/png",
            "name" : "85mmAutoCannonBaseColorNormalMap",
            "uri" : "85mmAutoCannonBaseColorNormalMap.png"
        },
        {
            "mimeType" : "image/png",
            "name" : "85mmAutoCannonBaseColorBaseColor",
            "uri" : "85mmAutoCannonBaseColorBaseColor.png"
        }
    ],
    "skins" : [
        {
            "inverseBindMatrices" : 7,
            "joints" : [
                0,
                1,
                4,
                3,
                2,
                5,
                6
            ],
            "name" : "85mmAutoCannon_Arm"
        }
    ],
    "accessors" : [
        {
            "bufferView" : 0,
            "componentType" : 5126,
            "count" : 818,
            "max" : [
                1.3000000715255737,
                1.8000003099441528,
                2.377692461013794
            ],
            "min" : [
                -1.3000000715255737,
                -2.2668724060058594,
                -1.7491421699523926
            ],
            "type" : "VEC3"
        },
        {
            "bufferView" : 1,
            "componentType" : 5126,
            "count" : 818,
            "type" : "VEC3"
        },
        {
            "bufferView" : 2,
            "componentType" : 5126,
            "count" : 818,
            "type" : "VEC2"
        },
        {
            "bufferView" : 3,
            "componentType" : 5126,
            "count" : 818,
            "type" : "VEC4"
        },
        {
            "bufferView" : 4,
            "componentType" : 5123,
            "count" : 818,
            "type" : "VEC4"
        },
        {
            "bufferView" : 5,
            "componentType" : 5126,
            "count" : 818,
            "type" : "VEC4"
        },
        {
            "bufferView" : 6,
            "componentType" : 5123,
            "count" : 1398,
            "type" : "SCALAR"
        },
        {
            "bufferView" : 7,
            "componentType" : 5126,
            "count" : 7,
            "type" : "MAT4"
        },
        {
            "bufferView" : 8,
            "componentType" : 5126,
            "count" : 2,
            "max" : [
                0.8333333333333334
            ],
            "min" : [
                0
            ],
            "type" : "SCALAR"
        },
        {
            "bufferView" : 9,
            "componentType" : 5126,
            "count" : 6,
            "type" : "VEC3"
        },
        {
            "bufferView" : 10,
            "componentType" : 5126,
            "count" : 6,
            "type" : "VEC4"
        },
        {
            "bufferView" : 11,
            "componentType" : 5126,
            "count" : 6,
            "type" : "VEC3"
        },
        {
            "bufferView" : 12,
            "componentType" : 5126,
            "count" : 4,
            "max" : [
                2.5
            ],
            "min" : [
                0
            ],
            "type" : "SCALAR"
        },
        {
            "bufferView" : 13,
            "componentType" : 5126,
            "count" : 12,
            "type" : "VEC3"
        },
        {
            "bufferView" : 14,
            "componentType" : 5126,
            "count" : 6,
            "type" : "VEC4"
        },
        {
            "bufferView" : 15,
            "componentType" : 5126,
            "count" : 6,
            "type" : "VEC3"
        },
        {
            "bufferView" : 16,
            "componentType" : 5126,
            "count" : 3,
            "max" : [
                2.5
            ],
            "min" : [
                0
            ],
            "type" : "SCALAR"
        },
        {
            "bufferView" : 17,
            "componentType" : 5126,
            "count" : 9,
            "type" : "VEC3"
        },
        {
            "bufferView" : 18,
            "componentType" : 5126,
            "count" : 9,
            "type" : "VEC4"
        },
        {
            "bufferView" : 19,
            "componentType" : 5126,
            "count" : 9,
            "type" : "VEC3"
        },
        {
            "bufferView" : 20,
            "componentType" : 5126,
            "count" : 3,
            "max" : [
                1.6666666666666667
            ],
            "min" : [
                0
            ],
            "type" : "SCALAR"
        },
        {
            "bufferView" : 21,
            "componentType" : 5126,
            "count" : 9,
            "type" : "VEC3"
        },
        {
            "bufferView" : 22,
            "componentType" : 5126,
            "count" : 1,
            "max" : [
                0
            ],
            "min" : [
                0
            ],
            "type" : "SCALAR"
        },
        {
            "bufferView" : 23,
            "componentType" : 5126,
            "count" : 1,
            "type" : "VEC4"
        },
        {
            "bufferView" : 24,
            "componentType" : 5126,
            "count" : 1,
            "type" : "VEC3"
        },
        {
            "bufferView" : 25,
            "componentType" : 5126,
            "count" : 9,
            "type" : "VEC3"
        },
        {
            "bufferView" : 26,
            "componentType" : 5126,
            "count" : 9,
            "type" : "VEC4"
        },
        {
            "bufferView" : 27,
            "componentType" : 5126,
            "count" : 9,
            "type" : "VEC3"
        },
        {
            "bufferView" : 28,
            "componentType" : 5126,
            "count" : 9,
            "type" : "VEC3"
        },
        {
            "bufferView" : 29,
            "componentType" : 5126,
            "count" : 1,
            "type" : "VEC4"
        },
        {
            "bufferView" : 30,
            "componentType" : 5126,
            "count" : 1,
            "type" : "VEC3"
        },
        {
            "bufferView" : 31,
            "componentType" : 5126,
            "count" : 2,
            "max" : [
                2.5
            ],
            "min" : [
                1.25
            ],
            "type" : "SCALAR"
        },
        {
            "bufferView" : 32,
            "componentType" : 5126,
            "count" : 6,
            "type" : "VEC3"
        },
        {
            "bufferView" : 33,
            "componentType" : 5126,
            "count" : 5,
            "max" : [
                2.5
            ],
            "min" : [
                0
            ],
            "type" : "SCALAR"
        },
        {
            "bufferView" : 34,
            "componentType" : 5126,
            "count" : 15,
            "type" : "VEC4"
        }
    ],
    "bufferViews" : [
        {
            "buffer" : 0,
            "byteLength" : 9816,
            "byteOffset" : 0
        },
        {
            "buffer" : 0,
            "byteLength" : 9816,
            "byteOffset" : 9816
        },
        {
            "buffer" : 0,
            "byteLength" : 6544,
            "byteOffset" : 19632
        },
        {
            "buffer" : 0,
            "byteLength" : 13088,
            "byteOffset" : 26176
        },
        {
            "buffer" : 0,
            "byteLength" : 6544,
            "byteOffset" : 39264
        },
        {
            "buffer" : 0,
            "byteLength" : 13088,
            "byteOffset" : 45808
        },
        {
            "buffer" : 0,
            "byteLength" : 2796,
            "byteOffset" : 58896
        },
        {
            "buffer" : 0,
            "byteLength" : 448,
            "byteOffset" : 61692
        },
        {
            "buffer" : 0,
            "byteLength" : 8,
            "byteOffset" : 62140
        },
        {
            "buffer" : 0,
            "byteLength" : 72,
            "byteOffset" : 62148
        },
        {
            "buffer" : 0,
            "byteLength" : 96,
            "byteOffset" : 62220
        },
        {
            "buffer" : 0,
            "byteLength" : 72,
            "byteOffset" : 62316
        },
        {
            "buffer" : 0,
            "byteLength" : 16,
            "byteOffset" : 62388
        },
        {
            "buffer" : 0,
            "byteLength" : 144,
            "byteOffset" : 62404
        },
        {
            "buffer" : 0,
            "byteLength" : 96,
            "byteOffset" : 62548
        },
        {
            "buffer" : 0,
            "byteLength" : 72,
            "byteOffset" : 62644
        },
        {
            "buffer" : 0,
            "byteLength" : 12,
            "byteOffset" : 62716
        },
        {
            "buffer" : 0,
            "byteLength" : 108,
            "byteOffset" : 62728
        },
        {
            "buffer" : 0,
            "byteLength" : 144,
            "byteOffset" : 62836
        },
        {
            "buffer" : 0,
            "byteLength" : 108,
            "byteOffset" : 62980
        },
        {
            "buffer" : 0,
            "byteLength" : 12,
            "byteOffset" : 63088
        },
        {
            "buffer" : 0,
            "byteLength" : 108,
            "byteOffset" : 63100
        },
        {
            "buffer" : 0,
            "byteLength" : 4,
            "byteOffset" : 63208
        },
        {
            "buffer" : 0,
            "byteLength" : 16,
            "byteOffset" : 63212
        },
        {
            "buffer" : 0,
            "byteLength" : 12,
            "byteOffset" : 63228
        },
        {
            "buffer" : 0,
            "byteLength" : 108,
            "byteOffset" : 63240
        },
        {
            "buffer" : 0,
            "byteLength" : 144,
            "byteOffset" : 63348
        },
        {
            "buffer" : 0,
            "byteLength" : 108,
            "byteOffset" : 63492
        },
        {
            "buffer" : 0,
            "byteLength" : 108,
            "byteOffset" : 63600
        },
        {
            "buffer" : 0,
            "byteLength" : 16,
            "byteOffset" : 63708
        },
        {
            "buffer" : 0,
            "byteLength" : 12,
            "byteOffset" : 63724
        },
        {
            "buffer" : 0,
            "byteLength" : 8,
            "byteOffset" : 63736
        },
        {
            "buffer" : 0,
            "byteLength" : 72,
            "byteOffset" : 63744
        },
        {
            "buffer" : 0,
            "byteLength" : 20,
            "byteOffset" : 63816
        },
        {
            "buffer" : 0,
            "byteLength" : 240,
            "byteOffset" : 63836
        }
    ],
    "buffers" : [
        {
            "byteLength" : 64076,
            "uri" : "scene.bin"
        }
    ]
}
