{
    "asset" : {
        "generator" : "Khronos glTF Blender I/O v0.9.36",
        "version" : "2.0"
    },
    "scene" : 0,
    "scenes" : [
        {
            "name" : "Scene",
            "nodes" : [
                0,
                1
            ]
        }
    ],
    "nodes" : [
        {
            "mesh" : 0,
            "name" : "Cylinder",
            "translation" : [
                0,
                2.076962471008301,
                0.6544667482376099
            ]
        },
        {
            "mesh" : 1,
            "name" : "Cube",
            "scale" : [
                0.4639931321144104,
                0.4639931321144104,
                0.4639931321144104
            ]
        }
    ],
    "materials" : [
        {
            "doubleSided" : true,
            "name" : "Material.001",
            "pbrMetallicRoughness" : {
                "baseColorFactor" : [
                    0.0596168115735054,
                    0.0596168115735054,
                    0.0596168115735054,
                    1
                ],
                "metallicFactor" : 0.7363636493682861,
                "roughnessFactor" : 0.3954545259475708
            }
        },
        {
            "doubleSided" : true,
            "name" : "gunMaterial",
            "pbrMetallicRoughness" : {
                "baseColorFactor" : [
                    0.1136765331029892,
                    0.12122950702905655,
                    0.14561031758785248,
                    1
                ],
                "metallicFactor" : 0,
                "roughnessFactor" : 0.5
            }
        }
    ],
    "meshes" : [
        {
            "name" : "Cylinder",
            "primitives" : [
                {
                    "attributes" : {
                        "POSITION" : 0,
                        "NORMAL" : 1,
                        "TEXCOORD_0" : 2
                    },
                    "indices" : 3,
                    "material" : 0
                }
            ]
        },
        {
            "name" : "Cube.001",
            "primitives" : [
                {
                    "attributes" : {
                        "POSITION" : 4,
                        "NORMAL" : 5,
                        "TEXCOORD_0" : 6
                    },
                    "indices" : 7,
                    "material" : 1
                }
            ]
        }
    ],
    "accessors" : [
        {
            "bufferView" : 0,
            "componentType" : 5126,
            "count" : 260,
            "max" : [
                1.4795207977294922,
                0.6227219104766846,
                7.525485515594482
            ],
            "min" : [
                -1.4795207977294922,
                -0.6773531436920166,
                -2.5119197368621826
            ],
            "type" : "VEC3"
        },
        {
            "bufferView" : 1,
            "componentType" : 5126,
            "count" : 260,
            "type" : "VEC3"
        },
        {
            "bufferView" : 2,
            "componentType" : 5126,
            "count" : 260,
            "type" : "VEC2"
        },
        {
            "bufferView" : 3,
            "componentType" : 5123,
            "count" : 624,
            "type" : "SCALAR"
        },
        {
            "bufferView" : 4,
            "componentType" : 5126,
            "count" : 298,
            "max" : [
                5.888367652893066,
                6.103607654571533,
                8.754161834716797
            ],
            "min" : [
                -5.888367652893066,
                -4.576665878295898,
                -6.776109218597412
            ],
            "type" : "VEC3"
        },
        {
            "bufferView" : 5,
            "componentType" : 5126,
            "count" : 298,
            "type" : "VEC3"
        },
        {
            "bufferView" : 6,
            "componentType" : 5126,
            "count" : 298,
            "type" : "VEC2"
        },
        {
            "bufferView" : 7,
            "componentType" : 5123,
            "count" : 576,
            "type" : "SCALAR"
        }
    ],
    "bufferViews" : [
        {
            "buffer" : 0,
            "byteLength" : 3120,
            "byteOffset" : 0
        },
        {
            "buffer" : 0,
            "byteLength" : 3120,
            "byteOffset" : 3120
        },
        {
            "buffer" : 0,
            "byteLength" : 2080,
            "byteOffset" : 6240
        },
        {
            "buffer" : 0,
            "byteLength" : 1248,
            "byteOffset" : 8320
        },
        {
            "buffer" : 0,
            "byteLength" : 3576,
            "byteOffset" : 9568
        },
        {
            "buffer" : 0,
            "byteLength" : 3576,
            "byteOffset" : 13144
        },
        {
            "buffer" : 0,
            "byteLength" : 2384,
            "byteOffset" : 16720
        },
        {
            "buffer" : 0,
            "byteLength" : 1152,
            "byteOffset" : 19104
        }
    ],
    "buffers" : [
        {
            "byteLength" : 20256,
            "uri" : "scene.bin"
        }
    ]
}
