{
    "asset" : {
        "generator" : "Khronos glTF Blender I/O v0.9.36",
        "version" : "2.0"
    },
    "scene" : 0,
    "scenes" : [
        {
            "name" : "Scene",
            "nodes" : [
                0,
                1,
                2
            ]
        }
    ],
    "nodes" : [
        {
            "mesh" : 0,
            "name" : "Barrel.004",
            "scale" : [
                1.660668134689331,
                1.660668134689331,
                1.660668134689331
            ]
        },
        {
            "mesh" : 1,
            "name" : "turret base.002",
            "scale" : [
                1.660668134689331,
                1.660668134689331,
                1.660668134689331
            ]
        },
        {
            "mesh" : 2,
            "name" : "turret chassis 2.002",
            "scale" : [
                1.660668134689331,
                1.660668134689331,
                1.660668134689331
            ]
        }
    ],
    "materials" : [
        {
            "doubleSided" : true,
            "name" : "Material.003",
            "pbrMetallicRoughness" : {
                "baseColorFactor" : [
                    0.08040221780538559,
                    0.0722888708114624,
                    0.06885062903165817,
                    1
                ],
                "metallicFactor" : 0,
                "roughnessFactor" : 0.5
            }
        },
        {
            "doubleSided" : true,
            "name" : "Material.005",
            "pbrMetallicRoughness" : {
                "baseColorFactor" : [
                    0.06514187902212143,
                    0.06514187902212143,
                    0.06514187902212143,
                    1
                ],
                "metallicFactor" : 0,
                "roughnessFactor" : 0.5
            }
        },
        {
            "doubleSided" : true,
            "name" : "Material.004",
            "pbrMetallicRoughness" : {
                "baseColorFactor" : [
                    0.03243697062134743,
                    0.03227298706769943,
                    0.03177502751350403,
                    1
                ],
                "metallicFactor" : 0,
                "roughnessFactor" : 0.5
            }
        }
    ],
    "meshes" : [
        {
            "name" : "Cube.053",
            "primitives" : [
                {
                    "attributes" : {
                        "POSITION" : 0,
                        "NORMAL" : 1,
                        "TEXCOORD_0" : 2
                    },
                    "indices" : 3,
                    "material" : 0
                }
            ]
        },
        {
            "name" : "Cylinder.005",
            "primitives" : [
                {
                    "attributes" : {
                        "POSITION" : 4,
                        "NORMAL" : 5,
                        "TEXCOORD_0" : 6
                    },
                    "indices" : 7,
                    "material" : 1
                }
            ]
        },
        {
            "name" : "Plane.003",
            "primitives" : [
                {
                    "attributes" : {
                        "POSITION" : 8,
                        "NORMAL" : 9,
                        "TEXCOORD_0" : 10
                    },
                    "indices" : 11,
                    "material" : 2
                }
            ]
        }
    ],
    "accessors" : [
        {
            "bufferView" : 0,
            "componentType" : 5126,
            "count" : 538,
            "max" : [
                1.1771812438964844,
                2.953054666519165,
                8.573420524597168
            ],
            "min" : [
                -1.1771812438964844,
                2.030388593673706,
                -1.6540896892547607
            ],
            "type" : "VEC3"
        },
        {
            "bufferView" : 1,
            "componentType" : 5126,
            "count" : 538,
            "type" : "VEC3"
        },
        {
            "bufferView" : 2,
            "componentType" : 5126,
            "count" : 538,
            "type" : "VEC2"
        },
        {
            "bufferView" : 3,
            "componentType" : 5123,
            "count" : 840,
            "type" : "SCALAR"
        },
        {
            "bufferView" : 4,
            "componentType" : 5126,
            "count" : 62,
            "max" : [
                1.6589727401733398,
                2.377591609954834,
                1.732267141342163
            ],
            "min" : [
                -1.6589727401733398,
                -1.650250792503357,
                -2.098966121673584
            ],
            "type" : "VEC3"
        },
        {
            "bufferView" : 5,
            "componentType" : 5126,
            "count" : 62,
            "type" : "VEC3"
        },
        {
            "bufferView" : 6,
            "componentType" : 5126,
            "count" : 62,
            "type" : "VEC2"
        },
        {
            "bufferView" : 7,
            "componentType" : 5123,
            "count" : 102,
            "type" : "SCALAR"
        },
        {
            "bufferView" : 8,
            "componentType" : 5126,
            "count" : 152,
            "max" : [
                2.2176826000213623,
                3.576481819152832,
                1.8222392797470093
            ],
            "min" : [
                -2.2176826000213623,
                1.358687400817871,
                -4.557300567626953
            ],
            "type" : "VEC3"
        },
        {
            "bufferView" : 9,
            "componentType" : 5126,
            "count" : 152,
            "type" : "VEC3"
        },
        {
            "bufferView" : 10,
            "componentType" : 5126,
            "count" : 152,
            "type" : "VEC2"
        },
        {
            "bufferView" : 11,
            "componentType" : 5123,
            "count" : 276,
            "type" : "SCALAR"
        }
    ],
    "bufferViews" : [
        {
            "buffer" : 0,
            "byteLength" : 6456,
            "byteOffset" : 0
        },
        {
            "buffer" : 0,
            "byteLength" : 6456,
            "byteOffset" : 6456
        },
        {
            "buffer" : 0,
            "byteLength" : 4304,
            "byteOffset" : 12912
        },
        {
            "buffer" : 0,
            "byteLength" : 1680,
            "byteOffset" : 17216
        },
        {
            "buffer" : 0,
            "byteLength" : 744,
            "byteOffset" : 18896
        },
        {
            "buffer" : 0,
            "byteLength" : 744,
            "byteOffset" : 19640
        },
        {
            "buffer" : 0,
            "byteLength" : 496,
            "byteOffset" : 20384
        },
        {
            "buffer" : 0,
            "byteLength" : 204,
            "byteOffset" : 20880
        },
        {
            "buffer" : 0,
            "byteLength" : 1824,
            "byteOffset" : 21084
        },
        {
            "buffer" : 0,
            "byteLength" : 1824,
            "byteOffset" : 22908
        },
        {
            "buffer" : 0,
            "byteLength" : 1216,
            "byteOffset" : 24732
        },
        {
            "buffer" : 0,
            "byteLength" : 552,
            "byteOffset" : 25948
        }
    ],
    "buffers" : [
        {
            "byteLength" : 26500,
            "uri" : "scene.bin"
        }
    ]
}
