{
    "asset" : {
        "generator" : "Khronos glTF Blender I/O v0.9.4",
        "version" : "2.0"
    },
    "scene" : 0,
    "scenes" : [
        {
            "name" : "Scene",
            "nodes" : [
                5,
                6
            ]
        }
    ],
    "nodes" : [
        {
            "name" : "gun",
            "rotation" : [
                0.7071068286895752,
                -1.1520233300643667e-07,
                -1.1520233300643667e-07,
                0.7071068286895752
            ],
            "translation" : [
                -1.1102230246251565e-16,
                1.3501840829849243,
                -0.3336982727050781
            ]
        },
        {
            "children" : [
                0
            ],
            "name" : "leg",
            "rotation" : [
                0.7071068286895752,
                0,
                0,
                0.7071068286895752
            ],
            "translation" : [
                0,
                0.16630172729492188,
                0.26526951789855957
            ]
        },
        {
            "name" : "gate front",
            "rotation" : [
                0.9997795224189758,
                0,
                -0.020998559892177582,
                0
            ],
            "scale" : [
                1,
                0.9999999403953552,
                1
            ],
            "translation" : [
                0,
                -1.5491371154785156,
                0.4459197521209717
            ]
        },
        {
            "name" : "gate back",
            "rotation" : [
                0,
                -0.02099919691681862,
                0,
                0.9997795224189758
            ],
            "translation" : [
                0,
                1.1085832118988037,
                0.46873044967651367
            ]
        },
        {
            "mesh" : 0,
            "name" : "Gun",
            "skin" : 0
        },
        {
            "children" : [
                4,
                1,
                2,
                3
            ],
            "name" : "Armature",
            "translation" : [
                0,
                23.443849563598633,
                10.19753360748291
            ]
        },
        {
            "mesh" : 1,
            "name" : "Merged ship",
            "scale" : [
                0.09017064422369003,
                0.09017064422369003,
                0.09017064422369003
            ]
        }
    ],
    "animations" : [
        {
            "channels" : [
                {
                    "sampler" : 0,
                    "target" : {
                        "node" : 0,
                        "path" : "translation"
                    }
                },
                {
                    "sampler" : 1,
                    "target" : {
                        "node" : 0,
                        "path" : "rotation"
                    }
                },
                {
                    "sampler" : 2,
                    "target" : {
                        "node" : 0,
                        "path" : "scale"
                    }
                },
                {
                    "sampler" : 3,
                    "target" : {
                        "node" : 1,
                        "path" : "translation"
                    }
                },
                {
                    "sampler" : 4,
                    "target" : {
                        "node" : 1,
                        "path" : "rotation"
                    }
                },
                {
                    "sampler" : 5,
                    "target" : {
                        "node" : 1,
                        "path" : "scale"
                    }
                },
                {
                    "sampler" : 6,
                    "target" : {
                        "node" : 2,
                        "path" : "translation"
                    }
                },
                {
                    "sampler" : 7,
                    "target" : {
                        "node" : 2,
                        "path" : "rotation"
                    }
                },
                {
                    "sampler" : 8,
                    "target" : {
                        "node" : 2,
                        "path" : "scale"
                    }
                },
                {
                    "sampler" : 9,
                    "target" : {
                        "node" : 3,
                        "path" : "translation"
                    }
                },
                {
                    "sampler" : 10,
                    "target" : {
                        "node" : 3,
                        "path" : "rotation"
                    }
                },
                {
                    "sampler" : 11,
                    "target" : {
                        "node" : 3,
                        "path" : "scale"
                    }
                }
            ],
            "name" : "ArmatureAction.002",
            "samplers" : [
                {
                    "input" : 19,
                    "interpolation" : "LINEAR",
                    "output" : 20
                },
                {
                    "input" : 19,
                    "interpolation" : "LINEAR",
                    "output" : 21
                },
                {
                    "input" : 19,
                    "interpolation" : "LINEAR",
                    "output" : 22
                },
                {
                    "input" : 19,
                    "interpolation" : "LINEAR",
                    "output" : 23
                },
                {
                    "input" : 19,
                    "interpolation" : "LINEAR",
                    "output" : 24
                },
                {
                    "input" : 19,
                    "interpolation" : "LINEAR",
                    "output" : 25
                },
                {
                    "input" : 19,
                    "interpolation" : "LINEAR",
                    "output" : 26
                },
                {
                    "input" : 19,
                    "interpolation" : "LINEAR",
                    "output" : 27
                },
                {
                    "input" : 19,
                    "interpolation" : "LINEAR",
                    "output" : 28
                },
                {
                    "input" : 19,
                    "interpolation" : "LINEAR",
                    "output" : 29
                },
                {
                    "input" : 19,
                    "interpolation" : "LINEAR",
                    "output" : 30
                },
                {
                    "input" : 19,
                    "interpolation" : "LINEAR",
                    "output" : 31
                }
            ]
        }
    ],
    "materials" : [
        {
            "name" : "Gun material",
            "pbrMetallicRoughness" : {
                "baseColorTexture" : {
                    "index" : 0,
                    "texCoord" : 0
                },
                "metallicFactor" : 0,
                "roughnessFactor" : 0.5
            }
        },
        {
            "name" : "ShipMaterial",
            "normalTexture" : {
                "index" : 1,
                "texCoord" : 0
            },
            "pbrMetallicRoughness" : {
                "baseColorTexture" : {
                    "index" : 2,
                    "texCoord" : 0
                },
                "metallicFactor" : 0,
                "roughnessFactor" : 0.5
            }
        }
    ],
    "meshes" : [
        {
            "name" : "Cube.008",
            "primitives" : [
                {
                    "attributes" : {
                        "POSITION" : 0,
                        "NORMAL" : 1,
                        "TEXCOORD_0" : 2,
                        "COLOR_0" : 3,
                        "JOINTS_0" : 4,
                        "WEIGHTS_0" : 5
                    },
                    "indices" : 6,
                    "material" : 0
                }
            ]
        },
        {
            "name" : "ShipMesh.001",
            "primitives" : [
                {
                    "attributes" : {
                        "POSITION" : 8,
                        "NORMAL" : 9,
                        "TEXCOORD_0" : 10,
                        "TEXCOORD_1" : 11,
                        "TEXCOORD_2" : 12,
                        "TEXCOORD_3" : 13,
                        "TEXCOORD_4" : 14,
                        "TEXCOORD_5" : 15,
                        "TEXCOORD_6" : 16,
                        "TEXCOORD_7" : 17
                    },
                    "indices" : 18,
                    "material" : 1
                }
            ]
        }
    ],
    "textures" : [
        {
            "source" : 0
        },
        {
            "source" : 1
        },
        {
            "source" : 2
        }
    ],
    "images" : [
        {
            "mimeType" : "image/png",
            "name" : "GunBaseColor",
            "uri" : "GunBaseColor.png"
        },
        {
            "mimeType" : "image/png",
            "name" : "normalMap",
            "uri" : "normalMap.png"
        },
        {
            "mimeType" : "image/png",
            "name" : "baseColor",
            "uri" : "baseColor.png"
        }
    ],
    "skins" : [
        {
            "inverseBindMatrices" : 7,
            "joints" : [
                1,
                0,
                2,
                3
            ],
            "name" : "Armature"
        }
    ],
    "accessors" : [
        {
            "bufferView" : 0,
            "componentType" : 5126,
            "count" : 584,
            "max" : [
                1.5303179025650024,
                2.4375364780426025,
                1.9582053422927856
            ],
            "min" : [
                -1.54342520236969,
                -2.632017135620117,
                -0.06588900089263916
            ],
            "type" : "VEC3"
        },
        {
            "bufferView" : 1,
            "componentType" : 5126,
            "count" : 584,
            "type" : "VEC3"
        },
        {
            "bufferView" : 2,
            "componentType" : 5126,
            "count" : 584,
            "type" : "VEC2"
        },
        {
            "bufferView" : 3,
            "componentType" : 5126,
            "count" : 584,
            "type" : "VEC4"
        },
        {
            "bufferView" : 4,
            "componentType" : 5123,
            "count" : 584,
            "type" : "VEC4"
        },
        {
            "bufferView" : 5,
            "componentType" : 5126,
            "count" : 584,
            "type" : "VEC4"
        },
        {
            "bufferView" : 6,
            "componentType" : 5123,
            "count" : 990,
            "type" : "SCALAR"
        },
        {
            "bufferView" : 7,
            "componentType" : 5126,
            "count" : 4,
            "type" : "MAT4"
        },
        {
            "bufferView" : 8,
            "componentType" : 5126,
            "count" : 10102,
            "max" : [
                133.05227661132812,
                482.430908203125,
                113.56494903564453
            ],
            "min" : [
                -133.05227661132812,
                -487.61651611328125,
                -81.36601257324219
            ],
            "type" : "VEC3"
        },
        {
            "bufferView" : 9,
            "componentType" : 5126,
            "count" : 10102,
            "type" : "VEC3"
        },
        {
            "bufferView" : 10,
            "componentType" : 5126,
            "count" : 10102,
            "type" : "VEC2"
        },
        {
            "bufferView" : 11,
            "componentType" : 5126,
            "count" : 10102,
            "type" : "VEC2"
        },
        {
            "bufferView" : 12,
            "componentType" : 5126,
            "count" : 10102,
            "type" : "VEC2"
        },
        {
            "bufferView" : 13,
            "componentType" : 5126,
            "count" : 10102,
            "type" : "VEC2"
        },
        {
            "bufferView" : 14,
            "componentType" : 5126,
            "count" : 10102,
            "type" : "VEC2"
        },
        {
            "bufferView" : 15,
            "componentType" : 5126,
            "count" : 10102,
            "type" : "VEC2"
        },
        {
            "bufferView" : 16,
            "componentType" : 5126,
            "count" : 10102,
            "type" : "VEC2"
        },
        {
            "bufferView" : 17,
            "componentType" : 5126,
            "count" : 10102,
            "type" : "VEC2"
        },
        {
            "bufferView" : 18,
            "componentType" : 5123,
            "count" : 16890,
            "type" : "SCALAR"
        },
        {
            "bufferView" : 19,
            "componentType" : 5126,
            "count" : 19,
            "max" : [
                0.7916666666666666
            ],
            "min" : [
                0.041666666666666664
            ],
            "type" : "SCALAR"
        },
        {
            "bufferView" : 20,
            "componentType" : 5126,
            "count" : 19,
            "type" : "VEC3"
        },
        {
            "bufferView" : 21,
            "componentType" : 5126,
            "count" : 19,
            "type" : "VEC4"
        },
        {
            "bufferView" : 22,
            "componentType" : 5126,
            "count" : 19,
            "type" : "VEC3"
        },
        {
            "bufferView" : 23,
            "componentType" : 5126,
            "count" : 19,
            "type" : "VEC3"
        },
        {
            "bufferView" : 24,
            "componentType" : 5126,
            "count" : 19,
            "type" : "VEC4"
        },
        {
            "bufferView" : 25,
            "componentType" : 5126,
            "count" : 19,
            "type" : "VEC3"
        },
        {
            "bufferView" : 26,
            "componentType" : 5126,
            "count" : 19,
            "type" : "VEC3"
        },
        {
            "bufferView" : 27,
            "componentType" : 5126,
            "count" : 19,
            "type" : "VEC4"
        },
        {
            "bufferView" : 28,
            "componentType" : 5126,
            "count" : 19,
            "type" : "VEC3"
        },
        {
            "bufferView" : 29,
            "componentType" : 5126,
            "count" : 19,
            "type" : "VEC3"
        },
        {
            "bufferView" : 30,
            "componentType" : 5126,
            "count" : 19,
            "type" : "VEC4"
        },
        {
            "bufferView" : 31,
            "componentType" : 5126,
            "count" : 19,
            "type" : "VEC3"
        }
    ],
    "bufferViews" : [
        {
            "buffer" : 0,
            "byteLength" : 7008,
            "byteOffset" : 0
        },
        {
            "buffer" : 0,
            "byteLength" : 7008,
            "byteOffset" : 7008
        },
        {
            "buffer" : 0,
            "byteLength" : 4672,
            "byteOffset" : 14016
        },
        {
            "buffer" : 0,
            "byteLength" : 9344,
            "byteOffset" : 18688
        },
        {
            "buffer" : 0,
            "byteLength" : 4672,
            "byteOffset" : 28032
        },
        {
            "buffer" : 0,
            "byteLength" : 9344,
            "byteOffset" : 32704
        },
        {
            "buffer" : 0,
            "byteLength" : 1980,
            "byteOffset" : 42048
        },
        {
            "buffer" : 0,
            "byteLength" : 256,
            "byteOffset" : 44028
        },
        {
            "buffer" : 0,
            "byteLength" : 121224,
            "byteOffset" : 44284
        },
        {
            "buffer" : 0,
            "byteLength" : 121224,
            "byteOffset" : 165508
        },
        {
            "buffer" : 0,
            "byteLength" : 80816,
            "byteOffset" : 286732
        },
        {
            "buffer" : 0,
            "byteLength" : 80816,
            "byteOffset" : 367548
        },
        {
            "buffer" : 0,
            "byteLength" : 80816,
            "byteOffset" : 448364
        },
        {
            "buffer" : 0,
            "byteLength" : 80816,
            "byteOffset" : 529180
        },
        {
            "buffer" : 0,
            "byteLength" : 80816,
            "byteOffset" : 609996
        },
        {
            "buffer" : 0,
            "byteLength" : 80816,
            "byteOffset" : 690812
        },
        {
            "buffer" : 0,
            "byteLength" : 80816,
            "byteOffset" : 771628
        },
        {
            "buffer" : 0,
            "byteLength" : 80816,
            "byteOffset" : 852444
        },
        {
            "buffer" : 0,
            "byteLength" : 33780,
            "byteOffset" : 933260
        },
        {
            "buffer" : 0,
            "byteLength" : 76,
            "byteOffset" : 967040
        },
        {
            "buffer" : 0,
            "byteLength" : 228,
            "byteOffset" : 967116
        },
        {
            "buffer" : 0,
            "byteLength" : 304,
            "byteOffset" : 967344
        },
        {
            "buffer" : 0,
            "byteLength" : 228,
            "byteOffset" : 967648
        },
        {
            "buffer" : 0,
            "byteLength" : 228,
            "byteOffset" : 967876
        },
        {
            "buffer" : 0,
            "byteLength" : 304,
            "byteOffset" : 968104
        },
        {
            "buffer" : 0,
            "byteLength" : 228,
            "byteOffset" : 968408
        },
        {
            "buffer" : 0,
            "byteLength" : 228,
            "byteOffset" : 968636
        },
        {
            "buffer" : 0,
            "byteLength" : 304,
            "byteOffset" : 968864
        },
        {
            "buffer" : 0,
            "byteLength" : 228,
            "byteOffset" : 969168
        },
        {
            "buffer" : 0,
            "byteLength" : 228,
            "byteOffset" : 969396
        },
        {
            "buffer" : 0,
            "byteLength" : 304,
            "byteOffset" : 969624
        },
        {
            "buffer" : 0,
            "byteLength" : 228,
            "byteOffset" : 969928
        }
    ],
    "buffers" : [
        {
            "byteLength" : 970156,
            "uri" : "scene.bin"
        }
    ]
}
