{
	"asset":{
		"generator":"Khronos glTF Blender I/O v4.2.60",
		"version":"2.0"
	},
	"scene":0,
	"scenes":[
		{
			"name":"Scene",
			"nodes":[
				0,
				1,
				2,
				3,
				4,
				5,
				6,
				7
			]
		}
	],
	"nodes":[
		{
			"mesh":0,
			"name":"ship_centrifuge",
			"scale":[
				0.800000011920929,
				0.800000011920929,
				0.800000011920929
			],
			"translation":[
				-9.273962020874023,
				0,
				2.684176445007324
			]
		},
		{
			"mesh":1,
			"name":"main_ship",
			"scale":[
				0.800000011920929,
				0.800000011920929,
				0.800000011920929
			],
			"translation":[
				-9.273962020874023,
				0,
				2.684176445007324
			]
		},
		{
			"mesh":2,
			"name":"ship_details",
			"scale":[
				2.05476450920105,
				2.05476450920105,
				2.05476450920105
			],
			"translation":[
				-54.60293197631836,
				0,
				2.684176445007324
			]
		},
		{
			"mesh":3,
			"name":"Cube",
			"scale":[
				0.800000011920929,
				0.800000011920929,
				0.800000011920929
			],
			"translation":[
				54.60744857788086,
				-4.868046760559082,
				16.847009658813477
			]
		},
		{
			"mesh":4,
			"name":"Thruster",
			"rotation":[
				-0.49999988079071045,
				-0.4999999403953552,
				0.5000000596046448,
				0.5000001788139343
			],
			"scale":[
				0.8830774426460266,
				0.8830774426460266,
				0.8830774426460266
			],
			"translation":[
				-52.14841079711914,
				0,
				12.138888359069824
			]
		},
		{
			"mesh":5,
			"name":"Cube.001",
			"rotation":[
				-0.04746811091899872,
				0,
				0,
				0.9988728165626526
			],
			"scale":[
				0.800000011920929,
				0.800000011920929,
				0.800000011920929
			],
			"translation":[
				-50.71934127807617,
				-5.526431560516357,
				16.847009658813477
			]
		},
		{
			"mesh":6,
			"name":"Cube.002",
			"scale":[
				0.800000011920929,
				0.800000011920929,
				0.800000011920929
			],
			"translation":[
				-22.54217529296875,
				-4.868046760559082,
				16.847009658813477
			]
		},
		{
			"mesh":7,
			"name":"Thruster.001",
			"rotation":[
				0.4999999403953552,
				-0.49999988079071045,
				-0.5000001788139343,
				0.5000000596046448
			],
			"scale":[
				-0.590731143951416,
				-0.590731143951416,
				-0.590731143951416
			],
			"translation":[
				58.74991989135742,
				0,
				14.54452133178711
			]
		}
	],
	"materials":[
		{
			"doubleSided":true,
			"name":"shipdetailmaterial",
			"pbrMetallicRoughness":{
				"baseColorFactor":[
					0.024637501686811447,
					0.016830023378133774,
					0.01931052841246128,
					1
				],
				"metallicFactor":0.44041451811790466,
				"roughnessFactor":0.5621761679649353
			}
		},
		{
			"doubleSided":true,
			"name":"shipmaterial",
			"normalTexture":{
				"index":0
			},
			"pbrMetallicRoughness":{
				"baseColorFactor":[
					0.05853944271802902,
					0.05853944271802902,
					0.05853944271802902,
					1
				],
				"metallicFactor":0,
				"roughnessFactor":0.5
			}
		},
		{
			"doubleSided":true,
			"name":"Material.001",
			"pbrMetallicRoughness":{
				"baseColorFactor":[
					0.012663546949625015,
					0.004181684926152229,
					0.0029417620971798897,
					1
				],
				"roughnessFactor":0.34545454382896423
			}
		},
		{
			"doubleSided":true,
			"name":"strutmaterial",
			"pbrMetallicRoughness":{
				"baseColorFactor":[
					0.01037848275154829,
					0.01037848275154829,
					0.01037848275154829,
					1
				],
				"metallicFactor":0.48704659938812256,
				"roughnessFactor":0.5958549380302429
			}
		}
	],
	"meshes":[
		{
			"name":"ship_centrifuge",
			"primitives":[
				{
					"attributes":{
						"POSITION":0,
						"NORMAL":1,
						"TEXCOORD_0":2
					},
					"indices":3,
					"material":0
				},
				{
					"attributes":{
						"POSITION":4,
						"NORMAL":5,
						"TEXCOORD_0":6
					},
					"indices":7,
					"material":1
				}
			]
		},
		{
			"name":"main_ship",
			"primitives":[
				{
					"attributes":{
						"POSITION":8,
						"NORMAL":9,
						"TEXCOORD_0":10
					},
					"indices":11,
					"material":0
				},
				{
					"attributes":{
						"POSITION":12,
						"NORMAL":13,
						"TEXCOORD_0":14
					},
					"indices":15,
					"material":1
				}
			]
		},
		{
			"name":"ship_details",
			"primitives":[
				{
					"attributes":{
						"POSITION":16,
						"NORMAL":17,
						"TEXCOORD_0":18
					},
					"indices":19,
					"material":0
				}
			]
		},
		{
			"name":"Cube",
			"primitives":[
				{
					"attributes":{
						"POSITION":20,
						"NORMAL":21,
						"TEXCOORD_0":22
					},
					"indices":23,
					"material":0
				}
			]
		},
		{
			"name":"Cylinder.003",
			"primitives":[
				{
					"attributes":{
						"POSITION":24,
						"NORMAL":25,
						"TEXCOORD_0":26,
						"TEXCOORD_1":27
					},
					"indices":28,
					"material":2
				},
				{
					"attributes":{
						"POSITION":29,
						"NORMAL":30,
						"TEXCOORD_0":31,
						"TEXCOORD_1":32
					},
					"indices":33,
					"material":3
				}
			]
		},
		{
			"name":"Cube.007",
			"primitives":[
				{
					"attributes":{
						"POSITION":34,
						"NORMAL":35,
						"TEXCOORD_0":36
					},
					"indices":37,
					"material":0
				}
			]
		},
		{
			"name":"Cube.008",
			"primitives":[
				{
					"attributes":{
						"POSITION":38,
						"NORMAL":39,
						"TEXCOORD_0":40
					},
					"indices":23,
					"material":0
				}
			]
		},
		{
			"name":"Cylinder.004",
			"primitives":[
				{
					"attributes":{
						"POSITION":41,
						"NORMAL":42,
						"TEXCOORD_0":43,
						"TEXCOORD_1":44
					},
					"indices":45,
					"material":2
				},
				{
					"attributes":{
						"POSITION":46,
						"NORMAL":47,
						"TEXCOORD_0":48,
						"TEXCOORD_1":49
					},
					"indices":33,
					"material":3
				}
			]
		}
	],
	"textures":[
		{
			"sampler":0,
			"source":0
		}
	],
	"images":[
		{
			"mimeType":"image/jpeg",
			"name":"heightmap",
			"uri":"heightmap.jpg"
		}
	],
	"accessors":[
		{
			"bufferView":0,
			"componentType":5126,
			"count":834,
			"max":[
				5.829639911651611,
				8.774651527404785,
				18.331758499145508
			],
			"min":[
				-6.111935138702393,
				-8.774650573730469,
				-18.331758499145508
			],
			"type":"VEC3"
		},
		{
			"bufferView":1,
			"componentType":5126,
			"count":834,
			"type":"VEC3"
		},
		{
			"bufferView":2,
			"componentType":5126,
			"count":834,
			"type":"VEC2"
		},
		{
			"bufferView":3,
			"componentType":5123,
			"count":1428,
			"type":"SCALAR"
		},
		{
			"bufferView":4,
			"componentType":5126,
			"count":576,
			"max":[
				9.154328346252441,
				9.562911987304688,
				36.68399429321289
			],
			"min":[
				-9.436623573303223,
				-9.562911987304688,
				-36.68399429321289
			],
			"type":"VEC3"
		},
		{
			"bufferView":5,
			"componentType":5126,
			"count":576,
			"type":"VEC3"
		},
		{
			"bufferView":6,
			"componentType":5126,
			"count":576,
			"type":"VEC2"
		},
		{
			"bufferView":7,
			"componentType":5123,
			"count":912,
			"type":"SCALAR"
		},
		{
			"bufferView":8,
			"componentType":5126,
			"count":761,
			"max":[
				89.49675750732422,
				19.29104995727539,
				10.859990119934082
			],
			"min":[
				-14.682830810546875,
				-19.29104995727539,
				-10.859990119934082
			],
			"type":"VEC3"
		},
		{
			"bufferView":9,
			"componentType":5126,
			"count":761,
			"type":"VEC3"
		},
		{
			"bufferView":10,
			"componentType":5126,
			"count":761,
			"type":"VEC2"
		},
		{
			"bufferView":11,
			"componentType":5123,
			"count":1368,
			"type":"SCALAR"
		},
		{
			"bufferView":12,
			"componentType":5126,
			"count":1080,
			"max":[
				84.6541519165039,
				19.29104995727539,
				24.191272735595703
			],
			"min":[
				-56.07747268676758,
				-19.29104995727539,
				-24.191272735595703
			],
			"type":"VEC3"
		},
		{
			"bufferView":13,
			"componentType":5126,
			"count":1080,
			"type":"VEC3"
		},
		{
			"bufferView":14,
			"componentType":5126,
			"count":1080,
			"type":"VEC2"
		},
		{
			"bufferView":15,
			"componentType":5123,
			"count":1836,
			"type":"SCALAR"
		},
		{
			"bufferView":16,
			"componentType":5126,
			"count":10818,
			"max":[
				68.19895935058594,
				5.751401901245117,
				9.113202095031738
			],
			"min":[
				-3.190908432006836,
				-5.666752815246582,
				-9.113201141357422
			],
			"type":"VEC3"
		},
		{
			"bufferView":17,
			"componentType":5126,
			"count":10818,
			"type":"VEC3"
		},
		{
			"bufferView":18,
			"componentType":5126,
			"count":10818,
			"type":"VEC2"
		},
		{
			"bufferView":19,
			"componentType":5123,
			"count":19938,
			"type":"SCALAR"
		},
		{
			"bufferView":20,
			"componentType":5126,
			"count":928,
			"max":[
				1,
				13.019373893737793,
				1.3950634002685547
			],
			"min":[
				-1,
				-0.84925776720047,
				-36.802146911621094
			],
			"type":"VEC3"
		},
		{
			"bufferView":21,
			"componentType":5126,
			"count":928,
			"type":"VEC3"
		},
		{
			"bufferView":22,
			"componentType":5126,
			"count":928,
			"type":"VEC2"
		},
		{
			"bufferView":23,
			"componentType":5123,
			"count":1776,
			"type":"SCALAR"
		},
		{
			"bufferView":24,
			"componentType":5126,
			"count":3636,
			"max":[
				6.793457984924316,
				28.172527313232422,
				13.83640193939209
			],
			"min":[
				-6.793091773986816,
				-6.759418487548828,
				-3.0529913902282715
			],
			"type":"VEC3"
		},
		{
			"bufferView":25,
			"componentType":5126,
			"count":3636,
			"type":"VEC3"
		},
		{
			"bufferView":26,
			"componentType":5126,
			"count":3636,
			"type":"VEC2"
		},
		{
			"bufferView":27,
			"componentType":5126,
			"count":3636,
			"type":"VEC2"
		},
		{
			"bufferView":28,
			"componentType":5123,
			"count":9156,
			"type":"SCALAR"
		},
		{
			"bufferView":29,
			"componentType":5126,
			"count":2196,
			"max":[
				5.997308731079102,
				26.019405364990234,
				5.488286972045898
			],
			"min":[
				-5.997313976287842,
				-4.606308937072754,
				-3.0156173706054688
			],
			"type":"VEC3"
		},
		{
			"bufferView":30,
			"componentType":5126,
			"count":2196,
			"type":"VEC3"
		},
		{
			"bufferView":31,
			"componentType":5126,
			"count":2196,
			"type":"VEC2"
		},
		{
			"bufferView":32,
			"componentType":5126,
			"count":2196,
			"type":"VEC2"
		},
		{
			"bufferView":33,
			"componentType":5123,
			"count":3456,
			"type":"SCALAR"
		},
		{
			"bufferView":34,
			"componentType":5126,
			"count":928,
			"max":[
				1.0000076293945312,
				17.960704803466797,
				2.676178216934204
			],
			"min":[
				-1,
				-0.84925776720047,
				-36.613529205322266
			],
			"type":"VEC3"
		},
		{
			"bufferView":35,
			"componentType":5126,
			"count":928,
			"type":"VEC3"
		},
		{
			"bufferView":36,
			"componentType":5126,
			"count":928,
			"type":"VEC2"
		},
		{
			"bufferView":37,
			"componentType":5123,
			"count":1776,
			"type":"SCALAR"
		},
		{
			"bufferView":38,
			"componentType":5126,
			"count":928,
			"max":[
				1,
				13.019373893737793,
				1.3950634002685547
			],
			"min":[
				-1,
				-0.84925776720047,
				-36.802146911621094
			],
			"type":"VEC3"
		},
		{
			"bufferView":39,
			"componentType":5126,
			"count":928,
			"type":"VEC3"
		},
		{
			"bufferView":40,
			"componentType":5126,
			"count":928,
			"type":"VEC2"
		},
		{
			"bufferView":41,
			"componentType":5126,
			"count":3636,
			"max":[
				6.793457984924316,
				46.91420364379883,
				13.83641529083252
			],
			"min":[
				-6.793097496032715,
				-6.759418487548828,
				-3.0529749393463135
			],
			"type":"VEC3"
		},
		{
			"bufferView":42,
			"componentType":5126,
			"count":3636,
			"type":"VEC3"
		},
		{
			"bufferView":43,
			"componentType":5126,
			"count":3636,
			"type":"VEC2"
		},
		{
			"bufferView":44,
			"componentType":5126,
			"count":3636,
			"type":"VEC2"
		},
		{
			"bufferView":45,
			"componentType":5123,
			"count":9156,
			"type":"SCALAR"
		},
		{
			"bufferView":46,
			"componentType":5126,
			"count":2196,
			"max":[
				5.997308731079102,
				44.7611083984375,
				5.488297939300537
			],
			"min":[
				-5.99731969833374,
				-4.606308937072754,
				-3.0156021118164062
			],
			"type":"VEC3"
		},
		{
			"bufferView":47,
			"componentType":5126,
			"count":2196,
			"type":"VEC3"
		},
		{
			"bufferView":48,
			"componentType":5126,
			"count":2196,
			"type":"VEC2"
		},
		{
			"bufferView":49,
			"componentType":5126,
			"count":2196,
			"type":"VEC2"
		}
	],
	"bufferViews":[
		{
			"buffer":0,
			"byteLength":10008,
			"byteOffset":0,
			"target":34962
		},
		{
			"buffer":0,
			"byteLength":10008,
			"byteOffset":10008,
			"target":34962
		},
		{
			"buffer":0,
			"byteLength":6672,
			"byteOffset":20016,
			"target":34962
		},
		{
			"buffer":0,
			"byteLength":2856,
			"byteOffset":26688,
			"target":34963
		},
		{
			"buffer":0,
			"byteLength":6912,
			"byteOffset":29544,
			"target":34962
		},
		{
			"buffer":0,
			"byteLength":6912,
			"byteOffset":36456,
			"target":34962
		},
		{
			"buffer":0,
			"byteLength":4608,
			"byteOffset":43368,
			"target":34962
		},
		{
			"buffer":0,
			"byteLength":1824,
			"byteOffset":47976,
			"target":34963
		},
		{
			"buffer":0,
			"byteLength":9132,
			"byteOffset":49800,
			"target":34962
		},
		{
			"buffer":0,
			"byteLength":9132,
			"byteOffset":58932,
			"target":34962
		},
		{
			"buffer":0,
			"byteLength":6088,
			"byteOffset":68064,
			"target":34962
		},
		{
			"buffer":0,
			"byteLength":2736,
			"byteOffset":74152,
			"target":34963
		},
		{
			"buffer":0,
			"byteLength":12960,
			"byteOffset":76888,
			"target":34962
		},
		{
			"buffer":0,
			"byteLength":12960,
			"byteOffset":89848,
			"target":34962
		},
		{
			"buffer":0,
			"byteLength":8640,
			"byteOffset":102808,
			"target":34962
		},
		{
			"buffer":0,
			"byteLength":3672,
			"byteOffset":111448,
			"target":34963
		},
		{
			"buffer":0,
			"byteLength":129816,
			"byteOffset":115120,
			"target":34962
		},
		{
			"buffer":0,
			"byteLength":129816,
			"byteOffset":244936,
			"target":34962
		},
		{
			"buffer":0,
			"byteLength":86544,
			"byteOffset":374752,
			"target":34962
		},
		{
			"buffer":0,
			"byteLength":39876,
			"byteOffset":461296,
			"target":34963
		},
		{
			"buffer":0,
			"byteLength":11136,
			"byteOffset":501172,
			"target":34962
		},
		{
			"buffer":0,
			"byteLength":11136,
			"byteOffset":512308,
			"target":34962
		},
		{
			"buffer":0,
			"byteLength":7424,
			"byteOffset":523444,
			"target":34962
		},
		{
			"buffer":0,
			"byteLength":3552,
			"byteOffset":530868,
			"target":34963
		},
		{
			"buffer":0,
			"byteLength":43632,
			"byteOffset":534420,
			"target":34962
		},
		{
			"buffer":0,
			"byteLength":43632,
			"byteOffset":578052,
			"target":34962
		},
		{
			"buffer":0,
			"byteLength":29088,
			"byteOffset":621684,
			"target":34962
		},
		{
			"buffer":0,
			"byteLength":29088,
			"byteOffset":650772,
			"target":34962
		},
		{
			"buffer":0,
			"byteLength":18312,
			"byteOffset":679860,
			"target":34963
		},
		{
			"buffer":0,
			"byteLength":26352,
			"byteOffset":698172,
			"target":34962
		},
		{
			"buffer":0,
			"byteLength":26352,
			"byteOffset":724524,
			"target":34962
		},
		{
			"buffer":0,
			"byteLength":17568,
			"byteOffset":750876,
			"target":34962
		},
		{
			"buffer":0,
			"byteLength":17568,
			"byteOffset":768444,
			"target":34962
		},
		{
			"buffer":0,
			"byteLength":6912,
			"byteOffset":786012,
			"target":34963
		},
		{
			"buffer":0,
			"byteLength":11136,
			"byteOffset":792924,
			"target":34962
		},
		{
			"buffer":0,
			"byteLength":11136,
			"byteOffset":804060,
			"target":34962
		},
		{
			"buffer":0,
			"byteLength":7424,
			"byteOffset":815196,
			"target":34962
		},
		{
			"buffer":0,
			"byteLength":3552,
			"byteOffset":822620,
			"target":34963
		},
		{
			"buffer":0,
			"byteLength":11136,
			"byteOffset":826172,
			"target":34962
		},
		{
			"buffer":0,
			"byteLength":11136,
			"byteOffset":837308,
			"target":34962
		},
		{
			"buffer":0,
			"byteLength":7424,
			"byteOffset":848444,
			"target":34962
		},
		{
			"buffer":0,
			"byteLength":43632,
			"byteOffset":855868,
			"target":34962
		},
		{
			"buffer":0,
			"byteLength":43632,
			"byteOffset":899500,
			"target":34962
		},
		{
			"buffer":0,
			"byteLength":29088,
			"byteOffset":943132,
			"target":34962
		},
		{
			"buffer":0,
			"byteLength":29088,
			"byteOffset":972220,
			"target":34962
		},
		{
			"buffer":0,
			"byteLength":18312,
			"byteOffset":1001308,
			"target":34963
		},
		{
			"buffer":0,
			"byteLength":26352,
			"byteOffset":1019620,
			"target":34962
		},
		{
			"buffer":0,
			"byteLength":26352,
			"byteOffset":1045972,
			"target":34962
		},
		{
			"buffer":0,
			"byteLength":17568,
			"byteOffset":1072324,
			"target":34962
		},
		{
			"buffer":0,
			"byteLength":17568,
			"byteOffset":1089892,
			"target":34962
		}
	],
	"samplers":[
		{
			"magFilter":9729,
			"minFilter":9987
		}
	],
	"buffers":[
		{
			"byteLength":1107460,
			"uri":"constantin.bin"
		}
	]
}
