{
    "asset" : {
        "generator" : "Khronos glTF Blender I/O v1.0.5",
        "version" : "2.0"
    },
    "scene" : 0,
    "scenes" : [
        {
            "name" : "Scene",
            "nodes" : [
                0,
                1,
                2,
                3,
                4,
                5,
                6,
                7,
                8,
                9,
                10
            ]
        }
    ],
    "nodes" : [
        {
            "mesh" : 0,
            "name" : "between thing.002",
            "scale" : [
                0.5527945160865784,
                0.5527945160865784,
                0.5527945160865784
            ]
        },
        {
            "mesh" : 1,
            "name" : "Icosphere",
            "scale" : [
                0.5527945160865784,
                0.5527945160865784,
                0.5527945160865784
            ]
        },
        {
            "mesh" : 2,
            "name" : "Cube",
            "scale" : [
                0.5527945160865784,
                0.5527945160865784,
                0.5527945160865784
            ]
        },
        {
            "mesh" : 3,
            "name" : "Cylinder",
            "scale" : [
                0.5527945160865784,
                0.5527945160865784,
                0.5527945160865784
            ]
        },
        {
            "mesh" : 4,
            "name" : "Cylinder.001",
            "scale" : [
                0.5527945160865784,
                0.5527945160865784,
                0.5527945160865784
            ]
        },
        {
            "mesh" : 5,
            "name" : "Cube.001",
            "scale" : [
                0.5527945160865784,
                0.5527945160865784,
                0.5527945160865784
            ]
        },
        {
            "mesh" : 6,
            "name" : "Cube.002",
            "scale" : [
                0.5527945160865784,
                0.5527945160865784,
                0.5527945160865784
            ]
        },
        {
            "mesh" : 7,
            "name" : "Cube.003",
            "scale" : [
                0.5527945160865784,
                0.5527945160865784,
                0.5527945160865784
            ]
        },
        {
            "mesh" : 8,
            "name" : "Cube.004",
            "scale" : [
                0.5527945160865784,
                0.5527945160865784,
                0.5527945160865784
            ]
        },
        {
            "mesh" : 9,
            "name" : "Cube.005",
            "scale" : [
                0.5527945160865784,
                0.5527945160865784,
                0.5527945160865784
            ]
        },
        {
            "mesh" : 10,
            "name" : "Cube.006",
            "scale" : [
                0.5527945160865784,
                0.5527945160865784,
                0.5527945160865784
            ]
        }
    ],
    "materials" : [
        {
            "doubleSided" : true,
            "name" : "Material.001",
            "pbrMetallicRoughness" : {
                "baseColorFactor" : [
                    0.5856478214263916,
                    0.5866474509239197,
                    0.6497913599014282,
                    1
                ],
                "metallicFactor" : 0.24090906977653503,
                "roughnessFactor" : 0.34090909361839294
            }
        }
    ],
    "meshes" : [
        {
            "name" : "Cube.036",
            "primitives" : [
                {
                    "attributes" : {
                        "POSITION" : 0,
                        "NORMAL" : 1,
                        "TEXCOORD_0" : 2
                    },
                    "indices" : 3,
                    "material" : 0
                }
            ]
        },
        {
            "name" : "Icosphere",
            "primitives" : [
                {
                    "attributes" : {
                        "POSITION" : 4,
                        "NORMAL" : 5,
                        "TANGENT" : 6,
                        "TEXCOORD_0" : 7
                    },
                    "indices" : 8,
                    "material" : 0
                }
            ]
        },
        {
            "name" : "Cube",
            "primitives" : [
                {
                    "attributes" : {
                        "POSITION" : 9,
                        "NORMAL" : 10,
                        "TEXCOORD_0" : 11
                    },
                    "indices" : 12,
                    "material" : 0
                }
            ]
        },
        {
            "name" : "Cylinder",
            "primitives" : [
                {
                    "attributes" : {
                        "POSITION" : 13,
                        "NORMAL" : 14,
                        "TEXCOORD_0" : 15
                    },
                    "indices" : 16,
                    "material" : 0
                }
            ]
        },
        {
            "name" : "Cylinder.003",
            "primitives" : [
                {
                    "attributes" : {
                        "POSITION" : 17,
                        "NORMAL" : 18,
                        "TEXCOORD_0" : 19
                    },
                    "indices" : 16,
                    "material" : 0
                }
            ]
        },
        {
            "name" : "Cube.001",
            "primitives" : [
                {
                    "attributes" : {
                        "POSITION" : 20,
                        "NORMAL" : 21,
                        "TANGENT" : 22,
                        "TEXCOORD_0" : 23
                    },
                    "indices" : 24,
                    "material" : 0
                }
            ]
        },
        {
            "name" : "Cube.002",
            "primitives" : [
                {
                    "attributes" : {
                        "POSITION" : 25,
                        "NORMAL" : 26,
                        "TANGENT" : 27,
                        "TEXCOORD_0" : 28
                    },
                    "indices" : 29,
                    "material" : 0
                }
            ]
        },
        {
            "name" : "Cube.003",
            "primitives" : [
                {
                    "attributes" : {
                        "POSITION" : 30,
                        "NORMAL" : 31,
                        "TANGENT" : 32,
                        "TEXCOORD_0" : 33
                    },
                    "indices" : 34
                }
            ]
        },
        {
            "name" : "Cube.004",
            "primitives" : [
                {
                    "attributes" : {
                        "POSITION" : 35,
                        "NORMAL" : 36,
                        "TANGENT" : 37,
                        "TEXCOORD_0" : 38
                    },
                    "indices" : 39
                }
            ]
        },
        {
            "name" : "Cube.005",
            "primitives" : [
                {
                    "attributes" : {
                        "POSITION" : 40,
                        "NORMAL" : 41,
                        "TANGENT" : 42,
                        "TEXCOORD_0" : 43
                    },
                    "indices" : 44,
                    "material" : 0
                }
            ]
        },
        {
            "name" : "Cube.006",
            "primitives" : [
                {
                    "attributes" : {
                        "POSITION" : 45,
                        "NORMAL" : 46,
                        "TANGENT" : 47,
                        "TEXCOORD_0" : 48
                    },
                    "indices" : 49,
                    "material" : 0
                }
            ]
        }
    ],
    "accessors" : [
        {
            "bufferView" : 0,
            "componentType" : 5126,
            "count" : 1952,
            "max" : [
                -47.34154510498047,
                18.555965423583984,
                18.551612854003906
            ],
            "min" : [
                -93.32154846191406,
                -18.547189712524414,
                -18.56024932861328
            ],
            "type" : "VEC3"
        },
        {
            "bufferView" : 1,
            "componentType" : 5126,
            "count" : 1952,
            "type" : "VEC3"
        },
        {
            "bufferView" : 2,
            "componentType" : 5126,
            "count" : 1952,
            "type" : "VEC2"
        },
        {
            "bufferView" : 3,
            "componentType" : 5123,
            "count" : 4440,
            "type" : "SCALAR"
        },
        {
            "bufferView" : 4,
            "componentType" : 5126,
            "count" : 1920,
            "max" : [
                -23.12995719909668,
                12.482207298278809,
                12.04183578491211
            ],
            "min" : [
                -47.94032287597656,
                -12.482206344604492,
                -12.041836738586426
            ],
            "type" : "VEC3"
        },
        {
            "bufferView" : 5,
            "componentType" : 5126,
            "count" : 1920,
            "type" : "VEC3"
        },
        {
            "bufferView" : 6,
            "componentType" : 5126,
            "count" : 1920,
            "type" : "VEC4"
        },
        {
            "bufferView" : 7,
            "componentType" : 5126,
            "count" : 1920,
            "type" : "VEC2"
        },
        {
            "bufferView" : 8,
            "componentType" : 5123,
            "count" : 1920,
            "type" : "SCALAR"
        },
        {
            "bufferView" : 9,
            "componentType" : 5126,
            "count" : 190,
            "max" : [
                70.54104614257812,
                6.098634243011475,
                14.42214298248291
            ],
            "min" : [
                -63.82878112792969,
                -6.098634243011475,
                -14.42214298248291
            ],
            "type" : "VEC3"
        },
        {
            "bufferView" : 10,
            "componentType" : 5126,
            "count" : 190,
            "type" : "VEC3"
        },
        {
            "bufferView" : 11,
            "componentType" : 5126,
            "count" : 190,
            "type" : "VEC2"
        },
        {
            "bufferView" : 12,
            "componentType" : 5123,
            "count" : 300,
            "type" : "SCALAR"
        },
        {
            "bufferView" : 13,
            "componentType" : 5126,
            "count" : 48,
            "max" : [
                50.643104553222656,
                8.49035358428955,
                8.383661270141602
            ],
            "min" : [
                8.724813461303711,
                -8.490352630615234,
                -8.383661270141602
            ],
            "type" : "VEC3"
        },
        {
            "bufferView" : 14,
            "componentType" : 5126,
            "count" : 48,
            "type" : "VEC3"
        },
        {
            "bufferView" : 15,
            "componentType" : 5126,
            "count" : 48,
            "type" : "VEC2"
        },
        {
            "bufferView" : 16,
            "componentType" : 5123,
            "count" : 84,
            "type" : "SCALAR"
        },
        {
            "bufferView" : 17,
            "componentType" : 5126,
            "count" : 48,
            "max" : [
                2.14676833152771,
                11.01796817779541,
                8.383660316467285
            ],
            "min" : [
                -10.50321102142334,
                -11.017965316772461,
                -8.383657455444336
            ],
            "type" : "VEC3"
        },
        {
            "bufferView" : 18,
            "componentType" : 5126,
            "count" : 48,
            "type" : "VEC3"
        },
        {
            "bufferView" : 19,
            "componentType" : 5126,
            "count" : 48,
            "type" : "VEC2"
        },
        {
            "bufferView" : 20,
            "componentType" : 5126,
            "count" : 160,
            "max" : [
                59.17210006713867,
                12.076544761657715,
                19.415008544921875
            ],
            "min" : [
                -23.814661026000977,
                -12.076544761657715,
                -19.415008544921875
            ],
            "type" : "VEC3"
        },
        {
            "bufferView" : 21,
            "componentType" : 5126,
            "count" : 160,
            "type" : "VEC3"
        },
        {
            "bufferView" : 22,
            "componentType" : 5126,
            "count" : 160,
            "type" : "VEC4"
        },
        {
            "bufferView" : 23,
            "componentType" : 5126,
            "count" : 160,
            "type" : "VEC2"
        },
        {
            "bufferView" : 24,
            "componentType" : 5123,
            "count" : 252,
            "type" : "SCALAR"
        },
        {
            "bufferView" : 25,
            "componentType" : 5126,
            "count" : 256,
            "max" : [
                -12.18794059753418,
                13.353429794311523,
                5.906072616577148
            ],
            "min" : [
                -22.54269790649414,
                -13.353429794311523,
                -5.906072616577148
            ],
            "type" : "VEC3"
        },
        {
            "bufferView" : 26,
            "componentType" : 5126,
            "count" : 256,
            "type" : "VEC3"
        },
        {
            "bufferView" : 27,
            "componentType" : 5126,
            "count" : 256,
            "type" : "VEC4"
        },
        {
            "bufferView" : 28,
            "componentType" : 5126,
            "count" : 256,
            "type" : "VEC2"
        },
        {
            "bufferView" : 29,
            "componentType" : 5123,
            "count" : 360,
            "type" : "SCALAR"
        },
        {
            "bufferView" : 30,
            "componentType" : 5126,
            "count" : 64,
            "max" : [
                61.74169158935547,
                5.31781530380249,
                3.8030567169189453
            ],
            "min" : [
                41.661258697509766,
                -5.346367835998535,
                -0.051602840423583984
            ],
            "type" : "VEC3"
        },
        {
            "bufferView" : 31,
            "componentType" : 5126,
            "count" : 64,
            "type" : "VEC3"
        },
        {
            "bufferView" : 32,
            "componentType" : 5126,
            "count" : 64,
            "type" : "VEC4"
        },
        {
            "bufferView" : 33,
            "componentType" : 5126,
            "count" : 64,
            "type" : "VEC2"
        },
        {
            "bufferView" : 34,
            "componentType" : 5123,
            "count" : 90,
            "type" : "SCALAR"
        },
        {
            "bufferView" : 35,
            "componentType" : 5126,
            "count" : 64,
            "max" : [
                65.40290832519531,
                3.571542263031006,
                -0.9530978202819824
            ],
            "min" : [
                45.32247543334961,
                -3.5907175540924072,
                -4.807757377624512
            ],
            "type" : "VEC3"
        },
        {
            "bufferView" : 36,
            "componentType" : 5126,
            "count" : 64,
            "type" : "VEC3"
        },
        {
            "bufferView" : 37,
            "componentType" : 5126,
            "count" : 64,
            "type" : "VEC4"
        },
        {
            "bufferView" : 38,
            "componentType" : 5126,
            "count" : 64,
            "type" : "VEC2"
        },
        {
            "bufferView" : 39,
            "componentType" : 5123,
            "count" : 90,
            "type" : "SCALAR"
        },
        {
            "bufferView" : 40,
            "componentType" : 5126,
            "count" : 128,
            "max" : [
                -38.632240295410156,
                1.548374891281128,
                13.60995101928711
            ],
            "min" : [
                -45.79450225830078,
                -1.5675830841064453,
                -13.60995101928711
            ],
            "type" : "VEC3"
        },
        {
            "bufferView" : 41,
            "componentType" : 5126,
            "count" : 128,
            "type" : "VEC3"
        },
        {
            "bufferView" : 42,
            "componentType" : 5126,
            "count" : 128,
            "type" : "VEC4"
        },
        {
            "bufferView" : 43,
            "componentType" : 5126,
            "count" : 128,
            "type" : "VEC2"
        },
        {
            "bufferView" : 44,
            "componentType" : 5123,
            "count" : 180,
            "type" : "SCALAR"
        },
        {
            "bufferView" : 45,
            "componentType" : 5126,
            "count" : 256,
            "max" : [
                3.501068115234375,
                12.62948989868164,
                16.44686508178711
            ],
            "min" : [
                -12.741313934326172,
                -12.62948989868164,
                -16.44686508178711
            ],
            "type" : "VEC3"
        },
        {
            "bufferView" : 46,
            "componentType" : 5126,
            "count" : 256,
            "type" : "VEC3"
        },
        {
            "bufferView" : 47,
            "componentType" : 5126,
            "count" : 256,
            "type" : "VEC4"
        },
        {
            "bufferView" : 48,
            "componentType" : 5126,
            "count" : 256,
            "type" : "VEC2"
        },
        {
            "bufferView" : 49,
            "componentType" : 5123,
            "count" : 360,
            "type" : "SCALAR"
        }
    ],
    "bufferViews" : [
        {
            "buffer" : 0,
            "byteLength" : 23424,
            "byteOffset" : 0
        },
        {
            "buffer" : 0,
            "byteLength" : 23424,
            "byteOffset" : 23424
        },
        {
            "buffer" : 0,
            "byteLength" : 15616,
            "byteOffset" : 46848
        },
        {
            "buffer" : 0,
            "byteLength" : 8880,
            "byteOffset" : 62464
        },
        {
            "buffer" : 0,
            "byteLength" : 23040,
            "byteOffset" : 71344
        },
        {
            "buffer" : 0,
            "byteLength" : 23040,
            "byteOffset" : 94384
        },
        {
            "buffer" : 0,
            "byteLength" : 30720,
            "byteOffset" : 117424
        },
        {
            "buffer" : 0,
            "byteLength" : 15360,
            "byteOffset" : 148144
        },
        {
            "buffer" : 0,
            "byteLength" : 3840,
            "byteOffset" : 163504
        },
        {
            "buffer" : 0,
            "byteLength" : 2280,
            "byteOffset" : 167344
        },
        {
            "buffer" : 0,
            "byteLength" : 2280,
            "byteOffset" : 169624
        },
        {
            "buffer" : 0,
            "byteLength" : 1520,
            "byteOffset" : 171904
        },
        {
            "buffer" : 0,
            "byteLength" : 600,
            "byteOffset" : 173424
        },
        {
            "buffer" : 0,
            "byteLength" : 576,
            "byteOffset" : 174024
        },
        {
            "buffer" : 0,
            "byteLength" : 576,
            "byteOffset" : 174600
        },
        {
            "buffer" : 0,
            "byteLength" : 384,
            "byteOffset" : 175176
        },
        {
            "buffer" : 0,
            "byteLength" : 168,
            "byteOffset" : 175560
        },
        {
            "buffer" : 0,
            "byteLength" : 576,
            "byteOffset" : 175728
        },
        {
            "buffer" : 0,
            "byteLength" : 576,
            "byteOffset" : 176304
        },
        {
            "buffer" : 0,
            "byteLength" : 384,
            "byteOffset" : 176880
        },
        {
            "buffer" : 0,
            "byteLength" : 1920,
            "byteOffset" : 177264
        },
        {
            "buffer" : 0,
            "byteLength" : 1920,
            "byteOffset" : 179184
        },
        {
            "buffer" : 0,
            "byteLength" : 2560,
            "byteOffset" : 181104
        },
        {
            "buffer" : 0,
            "byteLength" : 1280,
            "byteOffset" : 183664
        },
        {
            "buffer" : 0,
            "byteLength" : 504,
            "byteOffset" : 184944
        },
        {
            "buffer" : 0,
            "byteLength" : 3072,
            "byteOffset" : 185448
        },
        {
            "buffer" : 0,
            "byteLength" : 3072,
            "byteOffset" : 188520
        },
        {
            "buffer" : 0,
            "byteLength" : 4096,
            "byteOffset" : 191592
        },
        {
            "buffer" : 0,
            "byteLength" : 2048,
            "byteOffset" : 195688
        },
        {
            "buffer" : 0,
            "byteLength" : 720,
            "byteOffset" : 197736
        },
        {
            "buffer" : 0,
            "byteLength" : 768,
            "byteOffset" : 198456
        },
        {
            "buffer" : 0,
            "byteLength" : 768,
            "byteOffset" : 199224
        },
        {
            "buffer" : 0,
            "byteLength" : 1024,
            "byteOffset" : 199992
        },
        {
            "buffer" : 0,
            "byteLength" : 512,
            "byteOffset" : 201016
        },
        {
            "buffer" : 0,
            "byteLength" : 180,
            "byteOffset" : 201528
        },
        {
            "buffer" : 0,
            "byteLength" : 768,
            "byteOffset" : 201708
        },
        {
            "buffer" : 0,
            "byteLength" : 768,
            "byteOffset" : 202476
        },
        {
            "buffer" : 0,
            "byteLength" : 1024,
            "byteOffset" : 203244
        },
        {
            "buffer" : 0,
            "byteLength" : 512,
            "byteOffset" : 204268
        },
        {
            "buffer" : 0,
            "byteLength" : 180,
            "byteOffset" : 204780
        },
        {
            "buffer" : 0,
            "byteLength" : 1536,
            "byteOffset" : 204960
        },
        {
            "buffer" : 0,
            "byteLength" : 1536,
            "byteOffset" : 206496
        },
        {
            "buffer" : 0,
            "byteLength" : 2048,
            "byteOffset" : 208032
        },
        {
            "buffer" : 0,
            "byteLength" : 1024,
            "byteOffset" : 210080
        },
        {
            "buffer" : 0,
            "byteLength" : 360,
            "byteOffset" : 211104
        },
        {
            "buffer" : 0,
            "byteLength" : 3072,
            "byteOffset" : 211464
        },
        {
            "buffer" : 0,
            "byteLength" : 3072,
            "byteOffset" : 214536
        },
        {
            "buffer" : 0,
            "byteLength" : 4096,
            "byteOffset" : 217608
        },
        {
            "buffer" : 0,
            "byteLength" : 2048,
            "byteOffset" : 221704
        },
        {
            "buffer" : 0,
            "byteLength" : 720,
            "byteOffset" : 223752
        }
    ],
    "buffers" : [
        {
            "byteLength" : 224472,
            "uri" : "scene.bin"
        }
    ]
}
