{
    "asset" : {
        "generator" : "Khronos glTF Blender I/O v0.9.12",
        "version" : "2.0"
    },
    "scene" : 0,
    "scenes" : [
        {
            "name" : "Scene",
            "nodes" : [
                8
            ]
        }
    ],
    "nodes" : [
        {
            "name" : "fourth",
            "translation" : [
                0,
                9.784481048583984,
                0
            ]
        },
        {
            "children" : [
                0
            ],
            "name" : "third",
            "translation" : [
                0,
                9.991474151611328,
                0
            ]
        },
        {
            "children" : [
                1
            ],
            "name" : "second",
            "translation" : [
                0,
                10.012767791748047,
                0
            ]
        },
        {
            "children" : [
                2
            ],
            "name" : "first",
            "translation" : [
                0,
                9.179402351379395,
                0
            ]
        },
        {
            "children" : [
                3
            ],
            "name" : "zero",
            "translation" : [
                0,
                2.8296871185302734,
                0
            ]
        },
        {
            "children" : [
                4
            ],
            "name" : "root",
            "translation" : [
                0,
                -1.1472997665405273,
                0
            ]
        },
        {
            "name" : "case",
            "translation" : [
                0,
                -0.6876305937767029,
                0.44799086451530457
            ]
        },
        {
            "mesh" : 0,
            "name" : "radiator",
            "skin" : 0
        },
        {
            "children" : [
                7,
                5,
                6
            ],
            "name" : "Armature"
        }
    ],
    "materials" : [
        {
            "doubleSided" : true,
            "name" : "Radiator material",
            "normalTexture" : {
                "index" : 0,
                "texCoord" : 0
            },
            "pbrMetallicRoughness" : {
                "baseColorTexture" : {
                    "index" : 1,
                    "texCoord" : 0
                },
                "metallicFactor" : 0,
                "roughnessFactor" : 0.5
            }
        }
    ],
    "meshes" : [
        {
            "name" : "mesh",
            "primitives" : [
                {
                    "attributes" : {
                        "POSITION" : 0,
                        "NORMAL" : 1,
                        "TEXCOORD_0" : 2,
                        "JOINTS_0" : 3,
                        "WEIGHTS_0" : 4
                    },
                    "indices" : 5,
                    "material" : 0
                }
            ]
        }
    ],
    "textures" : [
        {
            "source" : 0
        },
        {
            "source" : 1
        }
    ],
    "images" : [
        {
            "mimeType" : "image/png",
            "name" : "10x40sail_normalMap",
            "uri" : "10x40sail_normalMap.png"
        },
        {
            "mimeType" : "image/png",
            "name" : "10x40sail_baseColor",
            "uri" : "10x40sail_baseColor.png"
        }
    ],
    "skins" : [
        {
            "inverseBindMatrices" : 6,
            "joints" : [
                5,
                4,
                3,
                2,
                1,
                0,
                6
            ],
            "name" : "Armature"
        }
    ],
    "accessors" : [
        {
            "bufferView" : 0,
            "componentType" : 5126,
            "count" : 435,
            "max" : [
                0.6543596982955933,
                40.869483947753906,
                4.564754009246826
            ],
            "min" : [
                -0.6543596982955933,
                -1.6992967128753662,
                -4.745253086090088
            ],
            "type" : "VEC3"
        },
        {
            "bufferView" : 1,
            "componentType" : 5126,
            "count" : 435,
            "type" : "VEC3"
        },
        {
            "bufferView" : 2,
            "componentType" : 5126,
            "count" : 435,
            "type" : "VEC2"
        },
        {
            "bufferView" : 3,
            "componentType" : 5123,
            "count" : 435,
            "type" : "VEC4"
        },
        {
            "bufferView" : 4,
            "componentType" : 5126,
            "count" : 435,
            "type" : "VEC4"
        },
        {
            "bufferView" : 5,
            "componentType" : 5123,
            "count" : 924,
            "type" : "SCALAR"
        },
        {
            "bufferView" : 6,
            "componentType" : 5126,
            "count" : 7,
            "type" : "MAT4"
        }
    ],
    "bufferViews" : [
        {
            "buffer" : 0,
            "byteLength" : 5220,
            "byteOffset" : 0
        },
        {
            "buffer" : 0,
            "byteLength" : 5220,
            "byteOffset" : 5220
        },
        {
            "buffer" : 0,
            "byteLength" : 3480,
            "byteOffset" : 10440
        },
        {
            "buffer" : 0,
            "byteLength" : 3480,
            "byteOffset" : 13920
        },
        {
            "buffer" : 0,
            "byteLength" : 6960,
            "byteOffset" : 17400
        },
        {
            "buffer" : 0,
            "byteLength" : 1848,
            "byteOffset" : 24360
        },
        {
            "buffer" : 0,
            "byteLength" : 448,
            "byteOffset" : 26208
        }
    ],
    "buffers" : [
        {
            "byteLength" : 26656,
            "uri" : "scene.bin"
        }
    ]
}
