{
    "asset" : {
        "generator" : "Khronos glTF Blender I/O v0.9.36",
        "version" : "2.0"
    },
    "scene" : 0,
    "scenes" : [
        {
            "name" : "Scene",
            "nodes" : [
                0,
                1
            ]
        }
    ],
    "nodes" : [
        {
            "mesh" : 0,
            "name" : "Cylinder"
        },
        {
            "mesh" : 1,
            "name" : "Cube"
        }
    ],
    "materials" : [
        {
            "doubleSided" : true,
            "name" : "Material.001",
            "pbrMetallicRoughness" : {
                "baseColorFactor" : [
                    0.0596168115735054,
                    0.0596168115735054,
                    0.0596168115735054,
                    1
                ],
                "metallicFactor" : 0.7363636493682861,
                "roughnessFactor" : 0.3954545259475708
            }
        },
        {
            "doubleSided" : true,
            "name" : "gunMaterial",
            "pbrMetallicRoughness" : {
                "baseColorFactor" : [
                    0.1136765331029892,
                    0.12122950702905655,
                    0.14561031758785248,
                    1
                ],
                "metallicFactor" : 0,
                "roughnessFactor" : 0.5
            }
        }
    ],
    "meshes" : [
        {
            "name" : "Cylinder",
            "primitives" : [
                {
                    "attributes" : {
                        "POSITION" : 0,
                        "NORMAL" : 1,
                        "TEXCOORD_0" : 2
                    },
                    "indices" : 3,
                    "material" : 0
                }
            ]
        },
        {
            "name" : "Cube.001",
            "primitives" : [
                {
                    "attributes" : {
                        "POSITION" : 4,
                        "NORMAL" : 5,
                        "TEXCOORD_0" : 6
                    },
                    "indices" : 7,
                    "material" : 1
                }
            ]
        }
    ],
    "accessors" : [
        {
            "bufferView" : 0,
            "componentType" : 5126,
            "count" : 260,
            "max" : [
                1.4795207977294922,
                1.896447777748108,
                2.6814990043640137
            ],
            "min" : [
                -1.4795207977294922,
                -8.140957832336426,
                1.3814239501953125
            ],
            "type" : "VEC3"
        },
        {
            "bufferView" : 1,
            "componentType" : 5126,
            "count" : 260,
            "type" : "VEC3"
        },
        {
            "bufferView" : 2,
            "componentType" : 5126,
            "count" : 260,
            "type" : "VEC2"
        },
        {
            "bufferView" : 3,
            "componentType" : 5123,
            "count" : 624,
            "type" : "SCALAR"
        },
        {
            "bufferView" : 4,
            "componentType" : 5126,
            "count" : 320,
            "max" : [
                2.7321622371673584,
                3.18306303024292,
                2.8138465881347656
            ],
            "min" : [
                -2.7321622371673584,
                -4.022876262664795,
                -2.1417269706726074
            ],
            "type" : "VEC3"
        },
        {
            "bufferView" : 5,
            "componentType" : 5126,
            "count" : 320,
            "type" : "VEC3"
        },
        {
            "bufferView" : 6,
            "componentType" : 5126,
            "count" : 320,
            "type" : "VEC2"
        },
        {
            "bufferView" : 7,
            "componentType" : 5123,
            "count" : 576,
            "type" : "SCALAR"
        }
    ],
    "bufferViews" : [
        {
            "buffer" : 0,
            "byteLength" : 3120,
            "byteOffset" : 0
        },
        {
            "buffer" : 0,
            "byteLength" : 3120,
            "byteOffset" : 3120
        },
        {
            "buffer" : 0,
            "byteLength" : 2080,
            "byteOffset" : 6240
        },
        {
            "buffer" : 0,
            "byteLength" : 1248,
            "byteOffset" : 8320
        },
        {
            "buffer" : 0,
            "byteLength" : 3840,
            "byteOffset" : 9568
        },
        {
            "buffer" : 0,
            "byteLength" : 3840,
            "byteOffset" : 13408
        },
        {
            "buffer" : 0,
            "byteLength" : 2560,
            "byteOffset" : 17248
        },
        {
            "buffer" : 0,
            "byteLength" : 1152,
            "byteOffset" : 19808
        }
    ],
    "buffers" : [
        {
            "byteLength" : 20960,
            "uri" : "scene.bin"
        }
    ]
}
