{
    "asset" : {
        "generator" : "Khronos glTF Blender I/O v0.9.12",
        "version" : "2.0"
    },
    "scene" : 0,
    "scenes" : [
        {
            "name" : "Scene",
            "nodes" : [
                0,
                1,
                2,
                3,
                4,
                5
            ]
        }
    ],
    "nodes" : [
        {
            "mesh" : 0,
            "name" : "Frame"
        },
        {
            "mesh" : 1,
            "name" : "Gate right"
        },
        {
            "mesh" : 2,
            "name" : "Gate left"
        },
        {
            "mesh" : 3,
            "name" : "GunMount"
        },
        {
            "mesh" : 4,
            "name" : "Gun",
            "scale" : [
                0.18354898691177368,
                0.18354898691177368,
                0.18354898691177368
            ]
        },
        {
            "mesh" : 5,
            "name" : "Barrels"
        }
    ],
    "meshes" : [
        {
            "name" : "Plane.001",
            "primitives" : [
                {
                    "attributes" : {
                        "POSITION" : 0,
                        "NORMAL" : 1,
                        "TEXCOORD_0" : 2
                    },
                    "indices" : 3
                }
            ]
        },
        {
            "name" : "Plane.002",
            "primitives" : [
                {
                    "attributes" : {
                        "POSITION" : 4,
                        "NORMAL" : 5,
                        "TEXCOORD_0" : 6
                    },
                    "indices" : 7
                }
            ]
        },
        {
            "name" : "Plane.003",
            "primitives" : [
                {
                    "attributes" : {
                        "POSITION" : 8,
                        "NORMAL" : 9,
                        "TEXCOORD_0" : 10
                    },
                    "indices" : 11
                }
            ]
        },
        {
            "name" : "Cube",
            "primitives" : [
                {
                    "attributes" : {
                        "POSITION" : 12,
                        "NORMAL" : 13,
                        "TEXCOORD_0" : 14
                    },
                    "indices" : 15
                }
            ]
        },
        {
            "name" : "Cube.001",
            "primitives" : [
                {
                    "attributes" : {
                        "POSITION" : 16,
                        "NORMAL" : 17,
                        "TEXCOORD_0" : 18,
                        "TEXCOORD_1" : 19
                    },
                    "indices" : 20
                }
            ]
        },
        {
            "name" : "Cylinder",
            "primitives" : [
                {
                    "attributes" : {
                        "POSITION" : 21,
                        "NORMAL" : 22,
                        "TEXCOORD_0" : 23
                    },
                    "indices" : 24
                }
            ]
        }
    ],
    "accessors" : [
        {
            "bufferView" : 0,
            "componentType" : 5126,
            "count" : 64,
            "max" : [
                1,
                0.29826247692108154,
                1
            ],
            "min" : [
                -1,
                -0.8110277652740479,
                -1
            ],
            "type" : "VEC3"
        },
        {
            "bufferView" : 1,
            "componentType" : 5126,
            "count" : 64,
            "type" : "VEC3"
        },
        {
            "bufferView" : 2,
            "componentType" : 5126,
            "count" : 64,
            "type" : "VEC2"
        },
        {
            "bufferView" : 3,
            "componentType" : 5123,
            "count" : 120,
            "type" : "SCALAR"
        },
        {
            "bufferView" : 4,
            "componentType" : 5126,
            "count" : 88,
            "max" : [
                -0.767571210861206,
                0.269871324300766,
                0.7956952452659607
            ],
            "min" : [
                -0.7998907566070557,
                -0.5854339003562927,
                -0.7956951260566711
            ],
            "type" : "VEC3"
        },
        {
            "bufferView" : 5,
            "componentType" : 5126,
            "count" : 88,
            "type" : "VEC3"
        },
        {
            "bufferView" : 6,
            "componentType" : 5126,
            "count" : 88,
            "type" : "VEC2"
        },
        {
            "bufferView" : 7,
            "componentType" : 5123,
            "count" : 132,
            "type" : "SCALAR"
        },
        {
            "bufferView" : 8,
            "componentType" : 5126,
            "count" : 84,
            "max" : [
                0.8000735640525818,
                0.27018705010414124,
                0.7956952452659607
            ],
            "min" : [
                0.7677540183067322,
                -0.6050309538841248,
                -0.7956951260566711
            ],
            "type" : "VEC3"
        },
        {
            "bufferView" : 9,
            "componentType" : 5126,
            "count" : 84,
            "type" : "VEC3"
        },
        {
            "bufferView" : 10,
            "componentType" : 5126,
            "count" : 84,
            "type" : "VEC2"
        },
        {
            "bufferView" : 11,
            "componentType" : 5123,
            "count" : 132,
            "type" : "SCALAR"
        },
        {
            "bufferView" : 12,
            "componentType" : 5126,
            "count" : 76,
            "max" : [
                0.2579689025878906,
                1.4418959617614746,
                0.2579689025878906
            ],
            "min" : [
                -0.2579689025878906,
                -0.8077779412269592,
                -0.2579689025878906
            ],
            "type" : "VEC3"
        },
        {
            "bufferView" : 13,
            "componentType" : 5126,
            "count" : 76,
            "type" : "VEC3"
        },
        {
            "bufferView" : 14,
            "componentType" : 5126,
            "count" : 76,
            "type" : "VEC2"
        },
        {
            "bufferView" : 15,
            "componentType" : 5123,
            "count" : 114,
            "type" : "SCALAR"
        },
        {
            "bufferView" : 16,
            "componentType" : 5126,
            "count" : 216,
            "max" : [
                3.693624973297119,
                11.028324127197266,
                2.2890636920928955
            ],
            "min" : [
                -3.693624973297119,
                6.376091480255127,
                -3.8185577392578125
            ],
            "type" : "VEC3"
        },
        {
            "bufferView" : 17,
            "componentType" : 5126,
            "count" : 216,
            "type" : "VEC3"
        },
        {
            "bufferView" : 18,
            "componentType" : 5126,
            "count" : 216,
            "type" : "VEC2"
        },
        {
            "bufferView" : 19,
            "componentType" : 5126,
            "count" : 216,
            "type" : "VEC2"
        },
        {
            "bufferView" : 20,
            "componentType" : 5123,
            "count" : 312,
            "type" : "SCALAR"
        },
        {
            "bufferView" : 21,
            "componentType" : 5126,
            "count" : 210,
            "max" : [
                0.09285461902618408,
                1.607176661491394,
                1.2373309135437012
            ],
            "min" : [
                -0.09285461902618408,
                1.4261234998703003,
                -0.6291753649711609
            ],
            "type" : "VEC3"
        },
        {
            "bufferView" : 22,
            "componentType" : 5126,
            "count" : 210,
            "type" : "VEC3"
        },
        {
            "bufferView" : 23,
            "componentType" : 5126,
            "count" : 210,
            "type" : "VEC2"
        },
        {
            "bufferView" : 24,
            "componentType" : 5123,
            "count" : 396,
            "type" : "SCALAR"
        }
    ],
    "bufferViews" : [
        {
            "buffer" : 0,
            "byteLength" : 768,
            "byteOffset" : 0
        },
        {
            "buffer" : 0,
            "byteLength" : 768,
            "byteOffset" : 768
        },
        {
            "buffer" : 0,
            "byteLength" : 512,
            "byteOffset" : 1536
        },
        {
            "buffer" : 0,
            "byteLength" : 240,
            "byteOffset" : 2048
        },
        {
            "buffer" : 0,
            "byteLength" : 1056,
            "byteOffset" : 2288
        },
        {
            "buffer" : 0,
            "byteLength" : 1056,
            "byteOffset" : 3344
        },
        {
            "buffer" : 0,
            "byteLength" : 704,
            "byteOffset" : 4400
        },
        {
            "buffer" : 0,
            "byteLength" : 264,
            "byteOffset" : 5104
        },
        {
            "buffer" : 0,
            "byteLength" : 1008,
            "byteOffset" : 5368
        },
        {
            "buffer" : 0,
            "byteLength" : 1008,
            "byteOffset" : 6376
        },
        {
            "buffer" : 0,
            "byteLength" : 672,
            "byteOffset" : 7384
        },
        {
            "buffer" : 0,
            "byteLength" : 264,
            "byteOffset" : 8056
        },
        {
            "buffer" : 0,
            "byteLength" : 912,
            "byteOffset" : 8320
        },
        {
            "buffer" : 0,
            "byteLength" : 912,
            "byteOffset" : 9232
        },
        {
            "buffer" : 0,
            "byteLength" : 608,
            "byteOffset" : 10144
        },
        {
            "buffer" : 0,
            "byteLength" : 228,
            "byteOffset" : 10752
        },
        {
            "buffer" : 0,
            "byteLength" : 2592,
            "byteOffset" : 10980
        },
        {
            "buffer" : 0,
            "byteLength" : 2592,
            "byteOffset" : 13572
        },
        {
            "buffer" : 0,
            "byteLength" : 1728,
            "byteOffset" : 16164
        },
        {
            "buffer" : 0,
            "byteLength" : 1728,
            "byteOffset" : 17892
        },
        {
            "buffer" : 0,
            "byteLength" : 624,
            "byteOffset" : 19620
        },
        {
            "buffer" : 0,
            "byteLength" : 2520,
            "byteOffset" : 20244
        },
        {
            "buffer" : 0,
            "byteLength" : 2520,
            "byteOffset" : 22764
        },
        {
            "buffer" : 0,
            "byteLength" : 1680,
            "byteOffset" : 25284
        },
        {
            "buffer" : 0,
            "byteLength" : 792,
            "byteOffset" : 26964
        }
    ],
    "buffers" : [
        {
            "byteLength" : 27756,
            "uri" : "scene.bin"
        }
    ]
}
